<svg width="218" height="69" viewBox="0 0 218 69" fill="none" xmlns="http://www.w3.org/2000/svg">
<path d="M200.715 49.816C198.07 49.816 196.065 49.0906 194.699 47.64C193.334 46.1893 192.651 44.3973 192.651 42.264C192.651 40.3866 193.121 38.3813 194.059 36.248C195.041 34.1146 196.321 32.1093 197.899 30.232C199.521 28.3546 201.291 26.84 203.211 25.688C205.174 24.536 207.115 23.96 209.035 23.96C210.059 23.96 210.998 24.2373 211.851 24.792C212.747 25.304 213.195 26.3706 213.195 27.992C213.195 29.6133 212.726 31.128 211.787 32.536C210.849 33.944 209.59 35.2026 208.011 36.312C206.433 37.4213 204.705 38.3386 202.827 39.064C200.993 39.7466 199.137 40.1946 197.259 40.408C197.174 40.7493 197.11 41.0906 197.067 41.432C197.067 41.7306 197.067 42.0506 197.067 42.392C197.067 42.904 197.11 43.4586 197.195 44.056C197.323 44.6533 197.558 45.2293 197.899 45.784C198.283 46.3386 198.795 46.7866 199.435 47.128C200.118 47.4693 200.993 47.64 202.059 47.64C203.894 47.64 205.707 47.128 207.499 46.104C209.291 45.08 210.955 43.736 212.491 42.072C214.07 40.3653 215.393 38.488 216.459 36.44L217.419 37.144C216.267 39.704 214.795 41.944 213.003 43.864C211.211 45.7413 209.249 47.192 207.115 48.216C205.025 49.2826 202.891 49.816 200.715 49.816ZM197.707 38.808C198.859 38.5093 200.139 37.9973 201.547 37.272C202.955 36.5466 204.321 35.6933 205.643 34.712C206.966 33.688 208.054 32.5786 208.907 31.384C209.761 30.1466 210.187 28.8666 210.187 27.544C210.187 27.0746 210.102 26.7333 209.931 26.52C209.761 26.3066 209.419 26.2 208.907 26.2C207.926 26.2 206.859 26.584 205.707 27.352C204.598 28.0773 203.51 29.0586 202.443 30.296C201.419 31.5333 200.481 32.8986 199.627 34.392C198.774 35.8426 198.134 37.3146 197.707 38.808Z" fill="url(#paint0_linear_83_27)"/>
<path d="M171.112 64.92C170.13 64.92 169.234 64.6213 168.424 64.024C167.613 63.4267 167.208 62.4453 167.208 61.08C167.208 59.7573 167.613 58.5413 168.424 57.432C169.192 56.3653 170.194 55.3627 171.432 54.424C172.712 53.528 174.077 52.696 175.528 51.928C177.021 51.16 178.45 50.4347 179.816 49.752C180.37 48.3867 180.882 46.9147 181.352 45.336C181.864 43.7147 182.354 41.9653 182.824 40.088C181.245 42.264 179.581 44.0773 177.832 45.528C176.125 46.9787 174.397 47.704 172.648 47.704C171.026 47.704 169.768 47.128 168.872 45.976C168.018 44.7813 167.592 43.2453 167.592 41.368C167.592 39.1493 168.125 37.0373 169.192 35.032C170.301 33.0267 171.73 31.256 173.48 29.72C175.272 28.184 177.149 26.9893 179.112 26.136C181.117 25.24 183.016 24.792 184.808 24.792C186.088 24.792 187.005 25.0053 187.56 25.432C188.157 25.8587 188.456 26.3707 188.456 26.968C188.456 27.3947 188.328 27.736 188.072 27.992C187.858 28.2053 187.709 28.3333 187.624 28.376C187.325 27.992 186.962 27.736 186.536 27.608C186.109 27.4373 185.576 27.352 184.936 27.352C183.272 27.352 181.65 27.8427 180.072 28.824C178.536 29.8053 177.17 31.064 175.976 32.6C174.824 34.0933 173.885 35.6507 173.16 37.272C172.477 38.8933 172.136 40.3653 172.136 41.688C172.136 42.6693 172.328 43.416 172.712 43.928C173.138 44.3973 173.672 44.632 174.312 44.632C175.506 44.632 176.957 43.8427 178.664 42.264C180.413 40.6427 182.098 38.68 183.72 36.376C183.805 35.864 183.89 35.416 183.976 35.032C184.104 34.6053 184.232 34.0933 184.36 33.496C184.573 32.5573 184.936 31.6827 185.448 30.872C186.002 30.0613 186.813 29.656 187.88 29.656C188.093 29.656 188.306 29.6773 188.52 29.72C188.776 29.7627 189.053 29.8267 189.352 29.912C189.352 30.5947 189.138 31.832 188.712 33.624C188.328 35.416 187.752 37.5067 186.984 39.896C186.258 42.2853 185.426 44.7387 184.488 47.256C185.853 46.616 187.218 45.784 188.584 44.76C189.949 43.6933 191.186 42.456 192.296 41.048C193.405 39.64 194.28 38.104 194.92 36.44L195.88 37.272C195.197 39.192 194.152 40.9627 192.744 42.584C191.336 44.1627 189.821 45.528 188.2 46.68C186.578 47.832 185.085 48.728 183.72 49.368C182.568 52.2267 181.309 54.8293 179.944 57.176C178.621 59.5227 177.234 61.4 175.784 62.808C174.333 64.216 172.776 64.92 171.112 64.92ZM170.92 62.552C171.73 62.552 172.84 61.7413 174.248 60.12C175.698 58.5413 177.256 55.8107 178.92 51.928C177.256 52.7387 175.698 53.592 174.248 54.488C172.84 55.384 171.688 56.3227 170.792 57.304C169.896 58.2853 169.448 59.352 169.448 60.504C169.448 61.144 169.576 61.6347 169.832 61.976C170.13 62.36 170.493 62.552 170.92 62.552Z" fill="url(#paint1_linear_83_27)"/>
<path d="M134.589 52.568C133.523 51.9706 132.861 51.3306 132.605 50.648C132.307 50.008 132.157 49.4746 132.157 49.048C132.157 47.8533 132.584 46.2533 133.437 44.248C134.291 42.2426 135.443 39.9386 136.893 37.336C138.344 34.7333 139.965 32.0453 141.757 29.272C140.264 29.144 138.941 29.0586 137.789 29.016C136.68 28.9733 135.528 28.952 134.333 28.952H132.541C133.053 27.6293 133.907 26.712 135.101 26.2C136.339 25.6453 137.789 25.368 139.453 25.368C140.179 25.368 140.925 25.4106 141.693 25.496C142.461 25.5813 143.251 25.688 144.061 25.816C146.237 22.5733 148.435 19.48 150.653 16.536C152.872 13.5493 154.941 10.8826 156.861 8.53596C158.824 6.18929 160.488 4.37596 161.853 3.09595C163.347 1.60262 164.52 0.855957 165.373 0.855957C165.885 0.855957 166.461 1.06929 167.101 1.49596C167.741 1.87996 168.403 2.41329 169.085 3.09595C168.659 3.43729 168.104 4.33329 167.421 5.78395C166.781 7.23462 166.077 9.06929 165.309 11.288C164.584 13.464 163.859 15.8533 163.133 18.456C162.408 21.0586 161.725 23.7253 161.085 26.456C160.488 29.1866 159.997 31.7893 159.613 34.264C159.272 36.696 159.101 38.8293 159.101 40.664C159.101 42.328 159.272 43.608 159.613 44.504C159.997 45.3573 160.595 45.784 161.405 45.784C162.472 45.784 163.709 45.0373 165.117 43.544C166.568 42.008 168.147 39.5973 169.853 36.312L170.621 37.144C169.341 40.5573 167.677 43.3733 165.629 45.592C163.624 47.8106 161.512 48.92 159.293 48.92C157.459 48.92 156.136 48.1093 155.325 46.488C154.515 44.824 154.109 42.6266 154.109 39.896C154.109 38.6586 154.195 37.2933 154.365 35.8C154.536 34.3066 154.792 32.664 155.133 30.872C153.256 30.5733 151.549 30.3386 150.013 30.168C148.477 29.9546 147.048 29.7626 145.725 29.592C143.72 33.304 141.757 37.1226 139.837 41.048C137.96 44.9306 136.211 48.7706 134.589 52.568ZM155.645 28.312C156.243 25.624 156.947 22.8933 157.757 20.12C158.568 17.304 159.421 14.6373 160.317 12.12C161.256 9.60262 162.152 7.38396 163.005 5.46395C161.683 6.31729 160.189 7.76796 158.525 9.81596C156.861 11.8213 155.091 14.2533 153.213 17.112C151.379 19.928 149.48 23.0426 147.517 26.456C148.925 26.712 150.312 27.0106 151.677 27.352C153.085 27.6933 154.408 28.0133 155.645 28.312Z" fill="url(#paint2_linear_83_27)"/>
<path d="M119.067 48.664C117.573 48.664 116.379 48.2586 115.483 47.448C114.629 46.68 114.203 45.656 114.203 44.376C114.203 43.096 114.501 41.7733 115.099 40.408C115.696 39 116.272 37.6133 116.827 36.248C117.424 34.8826 117.723 33.6666 117.723 32.6C117.723 31.3626 117.36 30.424 116.635 29.784C115.909 29.1013 115.12 28.504 114.267 27.992C113.328 30.424 112.304 32.7706 111.195 35.032C110.085 37.2506 109.189 38.9573 108.507 40.152L107.803 38.808C108.4 37.6986 109.168 36.0986 110.107 34.008C111.088 31.8746 112.048 29.4853 112.987 26.84C112.56 26.4133 112.347 25.88 112.347 25.24C112.347 24.0026 112.688 22.9573 113.371 22.104C114.096 21.2506 114.672 20.824 115.099 20.824C115.611 20.824 115.909 21.0586 115.995 21.528C116.123 21.9546 116.187 22.2746 116.187 22.488C116.187 22.7013 116.08 23.1066 115.867 23.704C115.653 24.3013 115.525 24.6853 115.483 24.856C115.525 25.4106 115.867 25.944 116.507 26.456C117.189 26.9253 117.957 27.4586 118.811 28.056C119.707 28.6533 120.475 29.4 121.115 30.296C121.797 31.192 122.139 32.3226 122.139 33.688C122.139 34.9253 121.861 36.2053 121.307 37.528C120.795 38.8506 120.261 40.088 119.707 41.24C119.195 42.392 118.939 43.416 118.939 44.312C118.939 44.9946 119.109 45.464 119.451 45.72C119.835 45.9333 120.261 46.04 120.731 46.04C121.755 46.04 122.8 45.7413 123.867 45.144C124.976 44.504 126.043 43.6933 127.067 42.712C128.133 41.7306 129.072 40.7066 129.883 39.64C130.693 38.5306 131.291 37.5066 131.675 36.568L132.763 37.4C131.952 39.192 130.821 40.9626 129.371 42.712C127.92 44.4613 126.299 45.8906 124.507 47C122.757 48.1093 120.944 48.664 119.067 48.664Z" fill="url(#paint3_linear_83_27)"/>
<path d="M93.3428 49.816C90.6975 49.816 88.6921 49.0906 87.3268 47.64C85.9615 46.1893 85.2788 44.3973 85.2788 42.264C85.2788 40.3866 85.7481 38.3813 86.6868 36.248C87.6681 34.1146 88.9481 32.1093 90.5268 30.232C92.1481 28.3546 93.9188 26.84 95.8388 25.688C97.8015 24.536 99.7428 23.96 101.663 23.96C102.687 23.96 103.625 24.2373 104.479 24.792C105.375 25.304 105.823 26.3706 105.823 27.992C105.823 29.6133 105.353 31.128 104.415 32.536C103.476 33.944 102.217 35.2026 100.639 36.312C99.0601 37.4213 97.3321 38.3386 95.4548 39.064C93.6201 39.7466 91.7641 40.1946 89.8868 40.408C89.8015 40.7493 89.7375 41.0906 89.6948 41.432C89.6948 41.7306 89.6948 42.0506 89.6948 42.392C89.6948 42.904 89.7375 43.4586 89.8228 44.056C89.9508 44.6533 90.1855 45.2293 90.5268 45.784C90.9108 46.3386 91.4228 46.7866 92.0628 47.128C92.7455 47.4693 93.6201 47.64 94.6868 47.64C96.5215 47.64 98.3348 47.128 100.127 46.104C101.919 45.08 103.583 43.736 105.119 42.072C106.697 40.3653 108.02 38.488 109.087 36.44L110.047 37.144C108.895 39.704 107.423 41.944 105.631 43.864C103.839 45.7413 101.876 47.192 99.7428 48.216C97.6521 49.2826 95.5188 49.816 93.3428 49.816ZM90.3348 38.808C91.4868 38.5093 92.7668 37.9973 94.1748 37.272C95.5828 36.5466 96.9481 35.6933 98.2708 34.712C99.5935 33.688 100.681 32.5786 101.535 31.384C102.388 30.1466 102.815 28.8666 102.815 27.544C102.815 27.0746 102.729 26.7333 102.559 26.52C102.388 26.3066 102.047 26.2 101.535 26.2C100.553 26.2 99.4868 26.584 98.3348 27.352C97.2255 28.0773 96.1375 29.0586 95.0708 30.296C94.0468 31.5333 93.1081 32.8986 92.2548 34.392C91.4015 35.8426 90.7615 37.3146 90.3348 38.808Z" fill="url(#paint4_linear_83_27)"/>
<path d="M64.6663 49.496C63.3009 49.496 62.3623 48.8773 61.8503 47.64C61.3809 46.4026 61.1249 44.9306 61.0823 43.224C61.1249 42.456 61.1676 41.6026 61.2103 40.664C61.2956 39.6826 61.3809 38.7653 61.4663 37.912C60.5276 39.704 59.5249 41.4533 58.4583 43.16C57.3916 44.824 56.2609 46.1893 55.0663 47.256C53.8716 48.3653 52.6129 48.92 51.2903 48.92C49.8396 48.92 48.6663 48.28 47.7703 47C46.8743 45.72 46.4263 44.184 46.4263 42.392C46.4263 41.1546 46.6183 39.7253 47.0023 38.104C47.4289 36.4826 47.9409 34.904 48.5383 33.368C49.1356 31.7893 49.7543 30.488 50.3943 29.464C51.0343 28.44 51.6103 27.928 52.1223 27.928C52.3356 27.928 52.7836 28.056 53.4663 28.312C54.1916 28.568 54.5969 28.9306 54.6823 29.4C54.2129 30.0826 53.6369 31.1706 52.9543 32.664C52.2716 34.1146 51.6743 35.6933 51.1623 37.4C50.6503 39.064 50.3943 40.5786 50.3943 41.944C50.3943 42.2853 50.4369 42.7973 50.5223 43.48C50.6076 44.12 50.7996 44.7173 51.0983 45.272C51.4396 45.8266 51.9303 46.104 52.5703 46.104C53.5516 46.104 54.5756 45.5066 55.6423 44.312C56.7516 43.0746 57.8396 41.5386 58.9063 39.704C60.0156 37.8693 61.0609 36.0133 62.0423 34.136C62.3836 32.344 62.6609 31.0426 62.8743 30.232C63.1303 29.4213 63.3863 28.9093 63.6423 28.696C63.9409 28.44 64.2823 28.312 64.6663 28.312C65.3063 28.312 65.7969 28.4613 66.1383 28.76C66.5223 29.016 66.7143 29.4 66.7143 29.912C66.7143 29.9546 66.6929 30.0826 66.6503 30.296C66.6076 30.4666 66.5649 30.616 66.5223 30.744C66.2663 31.7253 66.0103 32.9413 65.7543 34.392C65.4983 35.8426 65.2849 37.3786 65.1143 39C64.9436 40.5786 64.8583 42.0933 64.8583 43.544C64.8583 44.5253 64.9436 45.2933 65.1143 45.848C65.3276 46.4026 65.6903 46.68 66.2023 46.68C66.8423 46.68 67.5676 46.296 68.3783 45.528C69.2316 44.76 70.1063 43.7573 71.0023 42.52C71.8983 41.24 72.7729 39.8533 73.6263 38.36C74.4796 36.8666 75.2476 35.3733 75.9303 33.88C75.9303 31.6613 76.0796 29.976 76.3783 28.824C76.7196 27.6293 77.1463 26.8186 77.6583 26.392C78.1703 25.9653 78.7036 25.752 79.2583 25.752C80.1543 25.752 80.7943 26.072 81.1783 26.712C81.5623 27.3093 81.7543 27.8426 81.7543 28.312C81.7543 28.6533 81.6689 28.9946 81.4983 29.336C81.3276 29.6346 81.1569 29.976 80.9863 30.36C80.6449 31 80.3036 31.8106 79.9623 32.792C79.6636 33.7306 79.5143 35.0106 79.5143 36.632C79.5143 37.3146 79.5783 38.04 79.7063 38.808C79.8769 39.576 80.1543 40.216 80.5383 40.728C80.9649 41.1973 81.6049 41.432 82.4583 41.432C83.3116 41.432 84.1436 41.0906 84.9543 40.408C85.8076 39.7253 86.6609 38.488 87.5143 36.696L88.4743 37.4C87.5356 39.576 86.4903 41.048 85.3383 41.816C84.1863 42.584 83.0769 42.968 82.0103 42.968C80.6449 42.968 79.4929 42.4986 78.5543 41.56C77.6156 40.6213 76.9116 39.2986 76.4423 37.592C75.3756 39.512 74.1809 41.3893 72.8583 43.224C71.5783 45.0586 70.2343 46.552 68.8263 47.704C67.4183 48.8986 66.0316 49.496 64.6663 49.496Z" fill="url(#paint5_linear_83_27)"/>
<path d="M27.2782 49.048C25.4008 49.048 24.0782 48.4507 23.3102 47.256C22.5848 46.104 22.2222 44.7387 22.2222 43.16C22.2222 41.8374 22.4355 40.472 22.8622 39.064C23.2888 37.6134 23.8648 36.2694 24.5902 35.032C25.3155 33.7947 26.1262 32.8134 27.0222 32.088C27.9182 31.32 28.8142 30.936 29.7102 30.936C29.9662 30.936 30.2222 30.9787 30.4782 31.064C30.7768 31.1067 31.0328 31.192 31.2462 31.32C30.8195 31.7894 30.3288 32.4934 29.7742 33.432C29.2622 34.328 28.7715 35.352 28.3022 36.504C27.8328 37.6134 27.4488 38.744 27.1502 39.896C26.8515 41.0054 26.7022 41.9654 26.7022 42.776C26.7022 43.928 26.8942 44.8027 27.2782 45.4C27.7048 45.9547 28.2808 46.232 29.0062 46.232C29.8595 46.232 30.8835 45.7627 32.0782 44.824C33.2728 43.8427 34.4462 42.6694 35.5982 41.304C34.3608 40.2374 33.4222 38.936 32.7822 37.4C32.1422 35.8214 31.8222 34.1147 31.8222 32.28C31.8222 31.0427 32.0568 29.8267 32.5262 28.632C32.9955 27.4374 33.6995 26.456 34.6382 25.688C35.6195 24.8774 36.8355 24.472 38.2862 24.472C40.0782 24.472 41.2942 24.9627 41.9342 25.944C42.5742 26.8827 42.8942 28.056 42.8942 29.464C42.8942 31.128 42.4888 32.9627 41.6782 34.968C40.8675 36.9734 39.8435 38.8934 38.6062 40.728C39.2888 41.0694 40.0355 41.24 40.8462 41.24C41.5288 41.24 42.2968 41.112 43.1502 40.856C44.0035 40.5574 44.8568 40.0667 45.7102 39.384C46.5635 38.7014 47.2462 37.7627 47.7582 36.568L48.6542 37.272C47.7582 39.3627 46.5208 40.856 44.9422 41.752C43.4062 42.6054 41.9128 43.032 40.4622 43.032C39.9075 43.032 39.3742 42.9894 38.8622 42.904C38.3502 42.776 37.8595 42.6267 37.3902 42.456C35.9395 44.2907 34.3182 45.848 32.5262 47.128C30.7342 48.408 28.9848 49.048 27.2782 49.048ZM36.9422 39.512C37.9662 37.9334 38.8408 36.2907 39.5662 34.584C40.2915 32.8774 40.6542 31.256 40.6542 29.72C40.6542 28.568 40.4835 27.736 40.1422 27.224C39.8008 26.6694 39.3315 26.392 38.7342 26.392C37.9235 26.392 37.0702 27.0107 36.1742 28.248C35.2782 29.4427 34.8302 30.9574 34.8302 32.792C34.8302 33.9014 35.0008 35.096 35.3422 36.376C35.7262 37.656 36.2595 38.7014 36.9422 39.512Z" fill="url(#paint6_linear_83_27)"/>
<path d="M5.09682 52.568C3.94482 52.568 2.85682 52.248 1.83282 51.608C0.851489 51.0107 216 52.5894 216 51.608C216 51.096 0.467489 48.1307 0.680822 47.448C0.894156 46.808 1.08616 46.2107 1.25682 45.656C2.62216 41.5174 3.88082 37.656 5.03282 34.072C6.22749 30.488 7.42216 27.0107 8.61682 23.64C9.81149 20.2694 11.0702 16.8987 12.3928 13.528C13.7155 10.1574 15.2088 6.63738 16.8728 2.96804C15.2515 3.30938 13.8222 3.75738 12.5848 4.31204C11.3475 4.86671 10.3448 5.35738 9.57682 5.78404C8.85149 6.21071 8.33949 6.42405 8.04082 6.42405C7.87016 6.42405 7.61416 6.31738 7.27282 6.10404C6.93149 5.89071 6.61149 5.63471 6.31282 5.33604C6.05682 4.99471 5.92882 4.69604 5.92882 4.44004C7.08082 3.97071 8.42482 3.45871 9.96082 2.90405C11.4968 2.34938 13.1608 1.88004 14.9528 1.49604C16.7448 1.11204 18.5582 0.920044 20.3928 0.920044C22.3128 0.920044 24.2542 1.17604 26.2168 1.68805C28.2222 2.20004 30.0568 2.98938 31.7208 4.05605C33.3848 5.08005 34.7288 6.38138 35.7528 7.96004C36.7768 9.49605 37.2888 11.288 37.2888 13.336C37.2888 15.5547 36.7768 17.4747 35.7528 19.096C34.7715 20.7174 33.4488 22.0827 31.7848 23.192C30.1635 24.2587 28.3928 25.1334 26.4728 25.816C24.5955 26.456 22.7182 26.968 20.8408 27.352C18.9635 27.6934 17.2782 27.928 15.7848 28.056C14.2915 28.1414 13.2035 28.184 12.5208 28.184H11.9448C10.7075 32.536 9.49149 36.8454 8.29682 41.112C7.14482 45.336 6.07816 49.1547 5.09682 52.568ZM12.3288 26.84C14.6755 26.712 17.0435 26.328 19.4328 25.688C21.8648 25.048 24.0622 24.1307 26.0248 22.936C28.0302 21.7414 29.6302 20.2694 30.8248 18.52C32.0622 16.728 32.6808 14.6374 32.6808 12.248C32.6808 10.0294 32.1262 8.21604 31.0168 6.80804C29.9075 5.40004 28.4568 4.35471 26.6648 3.67204C24.9155 2.94671 23.0382 2.58405 21.0328 2.58405C19.4968 5.65604 17.9822 9.32538 16.4888 13.592C15.0382 17.816 13.6515 22.232 12.3288 26.84Z" fill="url(#paint7_linear_83_27)"/>
<path d="M4.07656 59.77H3.47656C3.4699 60.1967 3.46323 60.6333 3.45656 61.08C3.45656 61.52 3.45656 61.9633 3.45656 62.41V62.89H4.11656C4.72323 62.89 5.15656 62.7433 5.41656 62.45C5.67656 62.15 5.80656 61.7667 5.80656 61.3C5.80656 60.8133 5.66656 60.4367 5.38656 60.17C5.11323 59.9033 4.67656 59.77 4.07656 59.77ZM1.56656 59.72V59.31H4.25656C5.10323 59.31 5.73656 59.4967 6.15656 59.87C6.58323 60.2367 6.79656 60.7133 6.79656 61.3C6.79656 61.6733 6.70323 62.0167 6.51656 62.33C6.3299 62.6433 6.0299 62.8933 5.61656 63.08C5.2099 63.2667 4.66323 63.36 3.97656 63.36H3.45656C3.45656 63.72 3.45656 64.0733 3.45656 64.42C3.46323 64.7667 3.4699 65.12 3.47656 65.48L4.40656 65.59V66H1.56656V65.59L2.48656 65.48C2.4999 65.06 2.50656 64.6333 2.50656 64.2C2.50656 63.7667 2.50656 63.3333 2.50656 62.9V62.41C2.50656 61.9767 2.50656 61.5467 2.50656 61.12C2.50656 60.6867 2.4999 60.2567 2.48656 59.83L1.56656 59.72ZM7.33758 66V65.64L8.05758 65.51C8.06425 65.2567 8.06758 64.9833 8.06758 64.69C8.07425 64.39 8.07758 64.1267 8.07758 63.9V63.42C8.07758 63.1467 8.07425 62.92 8.06758 62.74C8.06758 62.56 8.06091 62.37 8.04758 62.17L7.25758 62.08V61.73L8.65758 61.12L8.80758 61.22L8.91758 62.4C9.08425 62 9.29758 61.6867 9.55758 61.46C9.82425 61.2333 10.0909 61.12 10.3576 61.12C10.5109 61.12 10.6542 61.1533 10.7876 61.22C10.9209 61.2867 11.0176 61.3767 11.0776 61.49C11.0776 61.9767 10.8809 62.22 10.4876 62.22C10.3742 62.22 10.2676 62.2 10.1676 62.16C10.0676 62.1133 9.97091 62.05 9.87758 61.97L9.75758 61.86C9.55758 62.0067 9.39091 62.1867 9.25758 62.4C9.12425 62.6133 9.01425 62.8633 8.92758 63.15V63.9C8.92758 64.12 8.92758 64.3767 8.92758 64.67C8.93425 64.9633 8.94091 65.2367 8.94758 65.49L9.76758 65.64V66H7.33758ZM13.7884 66.13C13.4018 66.13 13.0318 66.04 12.6784 65.86C12.3318 65.6733 12.0484 65.3967 11.8284 65.03C11.6084 64.6567 11.4984 64.1967 11.4984 63.65C11.4984 63.0967 11.6084 62.6333 11.8284 62.26C12.0484 61.88 12.3318 61.5967 12.6784 61.41C13.0318 61.2167 13.4018 61.12 13.7884 61.12C14.1751 61.12 14.5418 61.2167 14.8884 61.41C15.2418 61.5967 15.5284 61.88 15.7484 62.26C15.9751 62.6333 16.0884 63.0967 16.0884 63.65C16.0884 64.1967 15.9751 64.6567 15.7484 65.03C15.5284 65.3967 15.2418 65.6733 14.8884 65.86C14.5418 66.04 14.1751 66.13 13.7884 66.13ZM13.7884 65.68C14.2218 65.68 14.5551 65.51 14.7884 65.17C15.0218 64.8233 15.1384 64.3167 15.1384 63.65C15.1384 62.9767 15.0218 62.4633 14.7884 62.11C14.5551 61.7567 14.2218 61.58 13.7884 61.58C13.3551 61.58 13.0218 61.7567 12.7884 62.11C12.5618 62.4633 12.4484 62.9767 12.4484 63.65C12.4484 64.3167 12.5618 64.8233 12.7884 65.17C13.0218 65.51 13.3551 65.68 13.7884 65.68ZM17.8867 63.65C17.8867 64.3033 18.0167 64.7867 18.2767 65.1C18.5434 65.4067 18.8767 65.56 19.2767 65.56C19.4967 65.56 19.6901 65.5167 19.8567 65.43C20.0301 65.3367 20.2101 65.1867 20.3967 64.98V62.21C20.1701 62.01 19.9667 61.8733 19.7867 61.8C19.6067 61.7267 19.4334 61.69 19.2667 61.69C19.0201 61.69 18.7901 61.76 18.5767 61.9C18.3701 62.0333 18.2034 62.2467 18.0767 62.54C17.9501 62.8267 17.8867 63.1967 17.8867 63.65ZM20.4967 66.1L20.4267 65.41C20.2534 65.6367 20.0534 65.8133 19.8267 65.94C19.6067 66.0667 19.3401 66.13 19.0267 66.13C18.6201 66.13 18.2634 66.0267 17.9567 65.82C17.6501 65.6133 17.4101 65.3267 17.2367 64.96C17.0701 64.5867 16.9867 64.1567 16.9867 63.67C16.9867 63.1567 17.0801 62.71 17.2667 62.33C17.4534 61.95 17.7067 61.6533 18.0267 61.44C18.3467 61.2267 18.7101 61.12 19.1167 61.12C19.3501 61.12 19.5734 61.1667 19.7867 61.26C20.0067 61.3533 20.2201 61.5233 20.4267 61.77V59.51L19.5767 59.41V59.06L21.1367 58.61L21.2767 58.69L21.2367 60.11V65.52L22.0467 65.64V66L20.4967 66.1ZM24.3429 66.13C23.9362 66.13 23.6162 65.9967 23.3829 65.73C23.1496 65.4567 23.0362 64.99 23.0429 64.33L23.0729 61.84L22.3629 61.69V61.33L23.8329 61.19L23.9329 61.29L23.8829 62.69V64.24C23.8829 64.6733 23.9496 64.98 24.0829 65.16C24.2162 65.3333 24.4162 65.42 24.6829 65.42C25.1496 65.42 25.6162 65.2033 26.0829 64.77L26.1129 61.83L25.4029 61.69V61.33L26.8529 61.19L26.9529 61.29L26.9229 62.69V65.5L27.6029 65.64V66L26.2129 66.08L26.1129 65.19C25.8462 65.5167 25.5596 65.7567 25.2529 65.91C24.9529 66.0567 24.6496 66.13 24.3429 66.13ZM30.5153 66.13C29.8286 66.13 29.282 65.9067 28.8753 65.46C28.4686 65.0133 28.2653 64.4067 28.2653 63.64C28.2653 63.1133 28.372 62.6633 28.5853 62.29C28.8053 61.91 29.092 61.62 29.4453 61.42C29.7986 61.22 30.1753 61.12 30.5753 61.12C30.8753 61.12 31.152 61.1767 31.4053 61.29C31.6586 61.4033 31.8686 61.56 32.0353 61.76C32.202 61.9533 32.3053 62.1733 32.3453 62.42C32.2986 62.6733 32.1453 62.8 31.8853 62.8C31.7186 62.8 31.592 62.7567 31.5053 62.67C31.4253 62.5767 31.3686 62.46 31.3353 62.32L31.1553 61.66C31.062 61.6267 30.9686 61.6067 30.8753 61.6C30.7886 61.5867 30.702 61.58 30.6153 61.58C30.1886 61.58 29.8353 61.7467 29.5553 62.08C29.282 62.4133 29.1453 62.9 29.1453 63.54C29.1453 64.1667 29.2953 64.6467 29.5953 64.98C29.8953 65.3133 30.2786 65.48 30.7453 65.48C31.032 65.48 31.2953 65.4167 31.5353 65.29C31.7753 65.1567 31.972 64.9667 32.1253 64.72L32.3753 64.85C32.2353 65.2633 32.0086 65.58 31.6953 65.8C31.382 66.02 30.9886 66.13 30.5153 66.13ZM34.0781 63.65C34.0781 64.3033 34.2081 64.7867 34.4681 65.1C34.7348 65.4067 35.0681 65.56 35.4681 65.56C35.6881 65.56 35.8815 65.5167 36.0481 65.43C36.2215 65.3367 36.4015 65.1867 36.5881 64.98V62.21C36.3615 62.01 36.1581 61.8733 35.9781 61.8C35.7981 61.7267 35.6248 61.69 35.4581 61.69C35.2115 61.69 34.9815 61.76 34.7681 61.9C34.5615 62.0333 34.3948 62.2467 34.2681 62.54C34.1415 62.8267 34.0781 63.1967 34.0781 63.65ZM36.6881 66.1L36.6181 65.41C36.4448 65.6367 36.2448 65.8133 36.0181 65.94C35.7981 66.0667 35.5315 66.13 35.2181 66.13C34.8115 66.13 34.4548 66.0267 34.1481 65.82C33.8415 65.6133 33.6015 65.3267 33.4281 64.96C33.2615 64.5867 33.1781 64.1567 33.1781 63.67C33.1781 63.1567 33.2715 62.71 33.4581 62.33C33.6448 61.95 33.8981 61.6533 34.2181 61.44C34.5381 61.2267 34.9015 61.12 35.3081 61.12C35.5415 61.12 35.7648 61.1667 35.9781 61.26C36.1981 61.3533 36.4115 61.5233 36.6181 61.77V59.51L35.7681 59.41V59.06L37.3281 58.61L37.4681 58.69L37.4281 60.11V65.52L38.2381 65.64V66L36.6881 66.1ZM40.1359 66V65.64L40.8859 65.51C40.8926 65.2567 40.8959 64.9833 40.8959 64.69C40.9026 64.39 40.9059 64.1267 40.9059 63.9V59.51L40.0859 59.41V59.06L41.6159 58.61L41.7559 58.69L41.7159 60.11V61.89C41.9559 61.6233 42.2026 61.43 42.4559 61.31C42.7159 61.1833 42.9826 61.12 43.2559 61.12C43.6093 61.12 43.9293 61.2167 44.2159 61.41C44.5026 61.6033 44.7293 61.8833 44.8959 62.25C45.0693 62.6167 45.1559 63.06 45.1559 63.58C45.1559 64.0933 45.0659 64.5433 44.8859 64.93C44.7059 65.31 44.4593 65.6067 44.1459 65.82C43.8393 66.0267 43.4893 66.13 43.0959 66.13C42.8626 66.13 42.6293 66.08 42.3959 65.98C42.1626 65.88 41.9359 65.6933 41.7159 65.42L41.6359 66.1L40.1359 66ZM42.9859 61.69C42.8326 61.69 42.6559 61.73 42.4559 61.81C42.2559 61.89 42.0193 62.0433 41.7459 62.27V65.01C41.9526 65.2033 42.1559 65.3433 42.3559 65.43C42.5559 65.5167 42.7493 65.56 42.9359 65.56C43.2893 65.56 43.5959 65.4067 43.8559 65.1C44.1226 64.7867 44.2559 64.3067 44.2559 63.66C44.2559 63.02 44.1359 62.5333 43.8959 62.2C43.6626 61.86 43.3593 61.69 42.9859 61.69ZM48.6798 61.61V61.25H50.6298V61.61L50.0898 61.72L48.4798 65.97C48.1464 66.8567 47.8231 67.4967 47.5098 67.89C47.2031 68.29 46.8431 68.49 46.4298 68.49C46.1831 68.49 45.9664 68.4267 45.7798 68.3C45.5998 68.18 45.5098 68.0233 45.5098 67.83C45.5431 67.6833 45.6231 67.5733 45.7498 67.5C45.8831 67.4267 46.0264 67.39 46.1798 67.39C46.3131 67.39 46.4364 67.4167 46.5498 67.47C46.6631 67.53 46.7864 67.63 46.9198 67.77L46.9698 67.82C47.1831 67.64 47.3631 67.42 47.5098 67.16C47.6564 66.9067 47.7764 66.6467 47.8698 66.38L47.9098 66.26L46.0998 61.69L45.5498 61.61V61.25H47.9498V61.62L47.0698 61.72L48.3198 65.13L49.5498 61.73L48.6798 61.61ZM53.3249 56.664C56.3249 58.38 55.6409 60.456 54.7409 59.724C54.5849 58.764 53.8049 57.528 53.1689 56.76L53.3249 56.664ZM61.0529 56.592L62.2649 57.168C62.2049 57.3 62.0369 57.384 61.7849 57.336C61.0649 58.332 60.1529 59.316 59.3609 59.976L59.1929 59.844C59.7689 59.076 60.5129 57.78 61.0529 56.592ZM57.1289 55.944L58.3649 56.076C58.3409 56.244 58.2209 56.364 57.9209 56.412V60.564H61.3289L61.9409 59.808C61.9409 59.808 62.6249 60.324 63.0449 60.72C63.0209 60.852 62.9009 60.912 62.7329 60.912H59.1089V65.568C59.1089 65.796 59.1689 65.868 59.6369 65.868H60.8369C61.4009 65.868 61.8209 65.856 61.9889 65.832C62.1449 65.82 62.1929 65.772 62.2289 65.64C62.3369 65.4 62.4809 64.536 62.6369 63.636H62.7929L62.8409 65.724C63.1049 65.82 63.1529 65.928 63.1529 66.084C63.1529 66.456 62.7809 66.6 60.8249 66.6H59.5049C58.5329 66.6 58.3049 66.396 58.3049 65.76V60.912H56.6489C56.3849 64.068 55.3889 65.868 52.0169 66.936L51.9569 66.756C54.8129 65.484 55.5929 63.756 55.7369 60.912H52.1489L52.0529 60.564H57.1289V55.944ZM65.4089 61.248C65.1089 61.248 64.6169 60.684 64.4969 60.42C64.4369 60.276 64.4129 59.964 64.4249 59.76L64.6409 59.688C64.8569 60.036 65.0729 60.408 65.3729 60.408C65.8409 60.408 66.9809 60.276 67.7009 60.192C67.7009 59.58 67.6889 58.644 67.6169 58.356C67.5569 58.116 67.2809 58.044 66.7769 57.972V57.732C66.9809 57.66 67.2449 57.6 67.4489 57.6C67.8329 57.6 68.5529 57.936 68.5529 58.26C68.5529 58.512 68.4089 58.524 68.3849 58.908C68.3609 59.124 68.3489 59.604 68.3489 60.132L70.8929 59.88C70.9049 58.8 70.9049 58.056 70.8569 57.588C70.8209 57.336 70.5089 57.276 69.9929 57.204V56.952C70.2449 56.868 70.4969 56.796 70.7129 56.796C71.2649 56.796 71.9249 57.288 71.9249 57.552C71.9249 57.804 71.7089 57.744 71.6849 58.236L71.6369 59.82C73.0529 59.7 73.1729 59.616 73.4369 59.616C73.9169 59.616 74.5769 59.844 74.5769 60.216C74.5769 60.42 74.4929 60.492 74.2769 60.492C73.9889 60.492 73.5449 60.384 72.6449 60.384L71.6249 60.408C71.5769 61.896 71.5289 63.396 70.7489 64.452C70.2209 65.208 69.1529 66.012 67.6889 66.54L67.5209 66.264C68.4569 65.82 69.5009 65.172 70.1609 64.14C70.7489 63.216 70.8809 61.848 70.8929 60.456C70.0289 60.516 69.1049 60.6 68.3489 60.684V62.976C68.3489 63.456 68.2529 63.636 68.0009 63.636C67.6889 63.636 67.5089 63.12 67.5089 62.784C67.5089 62.376 67.6769 62.028 67.7009 60.756C67.0889 60.828 66.6089 60.912 66.2489 61.008C65.9369 61.08 65.6729 61.248 65.4089 61.248ZM81.3652 66.504C80.9692 66.504 80.7652 65.928 80.7652 65.532C80.7652 65.316 80.8612 65.076 80.9092 64.68C81.0052 63.864 81.0532 61.86 81.0172 61.32C81.0052 61.104 80.9692 60.96 80.8372 60.792C80.0932 61.452 78.4372 62.772 76.3372 63.636L76.1812 63.348C79.2172 61.656 81.2932 59.46 82.1332 58.272C82.3612 57.96 82.4572 57.756 82.4572 57.66C82.4572 57.468 82.2532 57.3 81.7492 57.048L81.8332 56.82C82.1092 56.832 82.3612 56.844 82.6132 56.952C83.0812 57.108 83.6092 57.636 83.6092 57.948C83.6092 58.176 83.3932 58.152 83.0692 58.512C82.6252 59.004 82.0372 59.652 81.2452 60.408C81.5812 60.624 81.8572 60.828 81.8572 60.996C81.8572 61.152 81.7612 61.32 81.7492 61.62C81.6652 63.36 81.7252 65.196 81.7252 65.916C81.7252 66.36 81.6172 66.504 81.3652 66.504ZM89.7767 60.012C89.5007 60.012 89.2607 59.832 89.0327 59.616C88.8647 59.436 88.6487 59.148 88.5167 58.824L88.7207 58.692C89.1047 59.028 89.4647 59.292 89.9207 59.292C90.4007 59.292 91.3847 59.184 92.5967 59.016C94.4687 58.752 94.2887 58.452 94.6127 58.452C95.0567 58.452 95.7287 58.704 95.7287 58.98C95.7287 59.16 95.6207 59.292 95.2847 59.34C94.8287 59.4 93.3047 59.568 92.2367 59.688C92.6087 59.856 92.9207 60.06 92.9207 60.288C92.9207 60.492 92.7767 60.696 92.7407 61.044C92.6807 61.56 92.5967 62.7 92.5487 63.552C93.4727 63.48 94.3967 63.408 95.1767 63.372C95.6927 63.348 95.8487 63.24 95.9927 63.24C96.4847 63.24 97.4327 63.636 97.4327 64.068C97.4327 64.272 97.3007 64.38 97.0727 64.38C96.7607 64.38 95.9687 64.116 94.7567 64.068C93.4487 63.996 90.6167 64.248 89.3807 64.56C88.9247 64.68 88.7207 64.848 88.4447 64.848C88.0847 64.848 87.5207 64.32 87.3887 64.056C87.2927 63.888 87.2567 63.708 87.2327 63.396L87.4607 63.3C87.7127 63.624 87.9887 63.936 88.4087 63.936C88.7567 63.936 90.1967 63.78 91.8167 63.624C91.8767 62.736 91.9127 61.38 91.9127 60.84C91.9127 60.36 91.8047 60.084 91.5287 59.772C90.7247 59.88 90.0647 60.012 89.7767 60.012ZM102.137 65.712C101.669 65.712 100.949 65.148 100.709 64.788C100.589 64.584 100.481 64.2 100.457 64.008L100.649 63.888C101.009 64.284 101.393 64.668 101.777 64.668C102.701 64.668 107.093 61.488 108.797 58.932L109.073 59.112C107.633 61.668 105.401 63.588 102.773 65.268C102.533 65.412 102.401 65.712 102.137 65.712ZM103.337 60.372C103.145 60.372 102.989 60.24 102.677 59.868C102.101 59.172 101.645 58.752 100.589 58.056L100.745 57.804C102.101 58.188 103.757 59.004 103.757 59.928C103.757 60.192 103.589 60.372 103.337 60.372ZM119.953 65.604C119.629 65.604 119.461 65.22 118.825 64.5C118.021 63.6 117.253 62.892 116.173 62.256C115.069 63.42 113.365 64.884 111.085 65.796L110.905 65.496C113.725 64.044 116.557 61.212 117.673 58.752C117.733 58.596 117.661 58.572 117.529 58.584C116.677 58.716 115.009 59.124 114.349 59.292C113.977 59.388 113.929 59.604 113.641 59.604C113.293 59.604 112.813 59.088 112.669 58.776C112.597 58.632 112.525 58.38 112.501 58.044L112.753 57.936C112.957 58.224 113.185 58.656 113.581 58.656C114.241 58.656 116.605 58.236 117.265 58.068C117.517 57.996 117.661 57.768 117.829 57.768C118.189 57.768 118.969 58.392 118.969 58.656C118.969 58.896 118.609 58.992 118.453 59.232C118.045 59.88 117.337 60.984 116.461 61.944C118.393 62.82 120.361 64.164 120.361 65.16C120.361 65.4 120.229 65.604 119.953 65.604ZM130.957 57.336H129.097V60.84V60.96H130.957V57.336ZM122.377 56.916H125.557L126.109 56.22C126.109 56.22 126.721 56.688 127.117 57.048L127.093 56.976H131.797L132.361 56.268C132.361 56.268 132.985 56.784 133.381 57.144C133.345 57.276 133.225 57.336 133.057 57.336H131.737V60.96H132.049L132.577 60.252C132.577 60.252 133.189 60.768 133.537 61.128C133.501 61.26 133.405 61.32 133.237 61.32H131.737V66.66C131.737 66.72 131.473 66.912 131.077 66.912H130.957V61.32H129.097C129.037 63.48 128.533 65.58 125.953 66.96L125.809 66.804C127.849 65.304 128.281 63.432 128.341 61.32H126.937L126.841 60.96H128.341V60.852V57.336H127.189L127.129 57.096C127.093 57.216 126.985 57.264 126.829 57.264H124.873C124.705 58.272 124.453 59.244 124.093 60.144L124.309 60.24H125.557L125.977 59.796L126.913 60.504C126.829 60.588 126.649 60.684 126.421 60.732V65.292C126.421 65.352 126.037 65.52 125.785 65.52H125.677V64.74H124.165V65.796C124.165 65.868 123.925 66.06 123.565 66.06H123.433V61.56C123.121 62.124 122.773 62.652 122.365 63.144L122.197 63C123.157 61.404 123.745 59.328 124.045 57.264H122.473L122.377 56.916ZM125.677 60.6H124.165V64.392H125.677V60.6ZM134.977 62.196H138.529C138.613 61.608 138.613 60.996 138.589 60.348L139.945 60.468C139.909 60.684 139.753 60.768 139.513 60.804C139.501 61.284 139.465 61.752 139.393 62.196H141.565L142.009 61.716L142.897 62.484C142.837 62.568 142.705 62.628 142.465 62.664V65.76C142.465 65.916 142.513 65.964 142.837 65.964H143.701C144.061 65.964 144.373 65.964 144.493 65.952C144.601 65.94 144.637 65.916 144.685 65.808C144.769 65.628 144.901 64.98 145.033 64.344H145.189L145.225 65.856C145.477 65.94 145.537 66.036 145.537 66.192C145.537 66.54 145.165 66.708 143.665 66.708H142.657C141.829 66.708 141.673 66.504 141.673 65.94V62.544H139.333C138.937 64.548 137.773 66.108 134.521 66.936L134.425 66.768C137.125 65.856 138.157 64.392 138.481 62.544H135.085L134.977 62.196ZM135.937 56.748H136.141C136.213 57.012 136.249 57.252 136.261 57.468H139.465V55.956L140.689 56.076C140.665 56.232 140.545 56.352 140.257 56.388V57.468H143.737L144.253 56.94L145.189 57.84C145.105 57.924 144.973 57.948 144.721 57.96C144.385 58.332 143.725 58.824 143.245 59.1L143.089 59.016C143.293 58.704 143.545 58.212 143.725 57.816H141.409V59.844C141.409 59.988 141.445 60.024 141.829 60.024H142.897C143.341 60.024 143.737 60.024 143.881 60C144.013 60 144.061 59.976 144.121 59.904C144.205 59.796 144.313 59.436 144.421 59.04H144.565L144.601 59.916C144.865 60 144.925 60.084 144.925 60.24C144.925 60.588 144.601 60.72 142.861 60.708H141.661C140.773 60.708 140.617 60.54 140.617 59.976V57.816H138.973C138.517 59.808 137.233 60.852 134.833 61.416L134.761 61.224C136.789 60.504 137.737 59.472 138.085 57.816H136.261C136.213 58.584 135.853 59.088 135.505 59.304C135.181 59.532 134.749 59.544 134.605 59.244C134.497 58.992 134.665 58.74 134.917 58.584C135.445 58.32 135.949 57.588 135.937 56.748ZM146.497 56.928H150.625L151.189 56.22C151.189 56.232 151.825 56.724 152.209 57.084C152.173 57.216 152.053 57.276 151.897 57.276H146.593L146.497 56.928ZM150.469 59.316H148.069V61.044L148.057 61.836H150.469V59.316ZM147.301 58.968V58.536L148.213 58.968H150.349L150.781 58.488L151.741 59.232C151.657 59.316 151.465 59.412 151.213 59.46V62.664C151.201 62.736 150.829 62.904 150.577 62.904H150.469V62.196H148.045C147.961 63.744 147.649 65.58 146.437 66.972L146.281 66.84C147.217 65.064 147.301 62.928 147.301 61.044V58.968ZM156.193 56.004L157.237 56.856C157.129 56.964 156.913 56.976 156.625 56.868C155.773 57.132 154.477 57.456 153.253 57.636V59.916H155.965L156.517 59.196C156.517 59.196 157.129 59.712 157.513 60.06C157.477 60.192 157.381 60.252 157.213 60.252H155.881V66.696C155.881 66.756 155.629 66.96 155.221 66.96H155.089V60.252H153.253V60.276C153.253 62.424 152.953 65.124 150.373 66.924L150.205 66.78C152.149 64.896 152.485 62.58 152.485 60.264V57.048L153.301 57.324C154.381 56.94 155.557 56.388 156.193 56.004Z" fill="black"/>
<defs>
<linearGradient id="paint0_linear_83_27" x1="320" y1="153" x2="-6.00002" y2="-12" gradientUnits="userSpaceOnUse">
<stop stop-color="#5000FD"/>
<stop offset="1" stop-color="#666666"/>
</linearGradient>
<linearGradient id="paint1_linear_83_27" x1="320" y1="153" x2="-6.00002" y2="-12" gradientUnits="userSpaceOnUse">
<stop stop-color="#5000FD"/>
<stop offset="1" stop-color="#666666"/>
</linearGradient>
<linearGradient id="paint2_linear_83_27" x1="320" y1="153" x2="-6.00003" y2="-12" gradientUnits="userSpaceOnUse">
<stop stop-color="#5000FD"/>
<stop offset="1" stop-color="#666666"/>
</linearGradient>
<linearGradient id="paint3_linear_83_27" x1="320" y1="153" x2="-6.00003" y2="-12" gradientUnits="userSpaceOnUse">
<stop stop-color="#5000FD"/>
<stop offset="1" stop-color="#666666"/>
</linearGradient>
<linearGradient id="paint4_linear_83_27" x1="320" y1="153" x2="-6.00002" y2="-12" gradientUnits="userSpaceOnUse">
<stop stop-color="#5000FD"/>
<stop offset="1" stop-color="#666666"/>
</linearGradient>
<linearGradient id="paint5_linear_83_27" x1="320" y1="153" x2="-6.00002" y2="-12" gradientUnits="userSpaceOnUse">
<stop stop-color="#5000FD"/>
<stop offset="1" stop-color="#666666"/>
</linearGradient>
<linearGradient id="paint6_linear_83_27" x1="320" y1="153" x2="-6.00002" y2="-12" gradientUnits="userSpaceOnUse">
<stop stop-color="#5000FD"/>
<stop offset="1" stop-color="#666666"/>
</linearGradient>
<linearGradient id="paint7_linear_83_27" x1="320" y1="153" x2="-6.00002" y2="-12" gradientUnits="userSpaceOnUse">
<stop stop-color="#09AAEE"/>
<stop offset="1" stop-color="#7A0B74"/>
</linearGradient>
</defs>
</svg>
