<svg width="217" height="71" viewBox="0 0 217 71" fill="none" xmlns="http://www.w3.org/2000/svg">
<path d="M200.035 48.96C197.389 48.96 195.384 48.2347 194.019 46.784C192.653 45.3333 191.971 43.5413 191.971 41.408C191.971 39.5307 192.44 37.5253 193.379 35.392C194.36 33.2587 195.64 31.2533 197.219 29.376C198.84 27.4987 200.611 25.984 202.531 24.832C204.493 23.68 206.435 23.104 208.355 23.104C209.379 23.104 210.317 23.3813 211.171 23.936C212.067 24.448 212.515 25.5147 212.515 27.136C212.515 28.7573 212.045 30.272 211.107 31.68C210.168 33.088 208.909 34.3467 207.331 35.456C205.752 36.5653 204.024 37.4827 202.147 38.208C200.312 38.8907 198.456 39.3387 196.579 39.552C196.493 39.8933 196.429 40.2347 196.387 40.576C196.387 40.8747 196.387 41.1947 196.387 41.536C196.387 42.048 196.429 42.6027 196.515 43.2C196.643 43.7973 196.877 44.3733 197.219 44.928C197.603 45.4827 198.115 45.9307 198.755 46.272C199.437 46.6133 200.312 46.784 201.379 46.784C203.213 46.784 205.027 46.272 206.819 45.248C208.611 44.224 210.275 42.88 211.811 41.216C213.389 39.5093 214.712 37.632 215.779 35.584L216.739 36.288C215.587 38.848 214.115 41.088 212.323 43.008C210.531 44.8853 208.568 46.336 206.435 47.36C204.344 48.4267 202.211 48.96 200.035 48.96ZM197.027 37.952C198.179 37.6533 199.459 37.1413 200.867 36.416C202.275 35.6907 203.64 34.8373 204.963 33.856C206.285 32.832 207.373 31.7227 208.227 30.528C209.08 29.2907 209.507 28.0107 209.507 26.688C209.507 26.2187 209.421 25.8773 209.251 25.664C209.08 25.4507 208.739 25.344 208.227 25.344C207.245 25.344 206.179 25.728 205.027 26.496C203.917 27.2213 202.829 28.2027 201.763 29.44C200.739 30.6773 199.8 32.0427 198.947 33.536C198.093 34.9867 197.453 36.4587 197.027 37.952Z" fill="url(#paint0_linear_83_27)"/>
<path d="M170.431 64.064C169.45 64.064 168.554 63.7654 167.743 63.168C166.932 62.5707 166.527 61.5894 166.527 60.224C166.527 58.9014 166.932 57.6854 167.743 56.576C168.511 55.5094 169.514 54.5067 170.751 53.568C172.031 52.672 173.396 51.84 174.847 51.072C176.34 50.304 177.77 49.5787 179.135 48.896C179.69 47.5307 180.202 46.0587 180.671 44.48C181.183 42.8587 181.674 41.1094 182.143 39.232C180.564 41.408 178.9 43.2214 177.151 44.672C175.444 46.1227 173.716 46.848 171.967 46.848C170.346 46.848 169.087 46.272 168.191 45.12C167.338 43.9254 166.911 42.3894 166.911 40.512C166.911 38.2934 167.444 36.1814 168.511 34.176C169.62 32.1707 171.05 30.4 172.799 28.864C174.591 27.328 176.468 26.1334 178.431 25.28C180.436 24.384 182.335 23.936 184.127 23.936C185.407 23.936 186.324 24.1494 186.879 24.576C187.476 25.0027 187.775 25.5147 187.775 26.112C187.775 26.5387 187.647 26.88 187.391 27.136C187.178 27.3494 187.028 27.4774 186.943 27.52C186.644 27.136 186.282 26.88 185.855 26.752C185.428 26.5814 184.895 26.496 184.255 26.496C182.591 26.496 180.97 26.9867 179.391 27.968C177.855 28.9494 176.49 30.208 175.295 31.744C174.143 33.2374 173.204 34.7947 172.479 36.416C171.796 38.0374 171.455 39.5094 171.455 40.832C171.455 41.8134 171.647 42.56 172.031 43.072C172.458 43.5414 172.991 43.776 173.631 43.776C174.826 43.776 176.276 42.9867 177.983 41.408C179.732 39.7867 181.418 37.824 183.039 35.52C183.124 35.008 183.21 34.56 183.295 34.176C183.423 33.7494 183.551 33.2374 183.679 32.64C183.892 31.7014 184.255 30.8267 184.767 30.016C185.322 29.2054 186.132 28.8 187.199 28.8C187.412 28.8 187.626 28.8214 187.839 28.864C188.095 28.9067 188.372 28.9707 188.671 29.056C188.671 29.7387 188.458 30.976 188.031 32.768C187.647 34.56 187.071 36.6507 186.303 39.04C185.578 41.4294 184.746 43.8827 183.807 46.4C185.172 45.76 186.538 44.928 187.903 43.904C189.268 42.8374 190.506 41.6 191.615 40.192C192.724 38.784 193.599 37.248 194.239 35.584L195.199 36.416C194.516 38.336 193.471 40.1067 192.063 41.728C190.655 43.3067 189.14 44.672 187.519 45.824C185.898 46.976 184.404 47.872 183.039 48.512C181.887 51.3707 180.628 53.9734 179.263 56.32C177.94 58.6667 176.554 60.544 175.103 61.952C173.652 63.36 172.095 64.064 170.431 64.064ZM170.239 61.696C171.05 61.696 172.159 60.8854 173.567 59.264C175.018 57.6854 176.575 54.9547 178.239 51.072C176.575 51.8827 175.018 52.736 173.567 53.632C172.159 54.528 171.007 55.4667 170.111 56.448C169.215 57.4294 168.767 58.496 168.767 59.648C168.767 60.288 168.895 60.7787 169.151 61.12C169.45 61.504 169.812 61.696 170.239 61.696Z" fill="url(#paint1_linear_83_27)"/>
<path d="M133.909 51.712C132.842 51.1147 132.181 50.4747 131.925 49.792C131.626 49.152 131.477 48.6187 131.477 48.192C131.477 46.9973 131.903 45.3973 132.757 43.392C133.61 41.3867 134.762 39.0827 136.213 36.48C137.663 33.8773 139.285 31.1893 141.077 28.416C139.583 28.288 138.261 28.2027 137.109 28.16C135.999 28.1173 134.847 28.096 133.653 28.096H131.861C132.373 26.7733 133.226 25.856 134.421 25.344C135.658 24.7893 137.109 24.512 138.773 24.512C139.498 24.512 140.245 24.5547 141.013 24.64C141.781 24.7253 142.57 24.832 143.381 24.96C145.557 21.7173 147.754 18.624 149.973 15.68C152.191 12.6933 154.261 10.0267 156.181 7.68C158.143 5.33333 159.807 3.52 161.173 2.24C162.666 0.746666 163.839 0 164.693 0C165.205 0 165.781 0.213333 166.421 0.639999C167.061 1.024 167.722 1.55733 168.405 2.24C167.978 2.58133 167.423 3.47733 166.741 4.928C166.101 6.37867 165.397 8.21333 164.629 10.432C163.903 12.608 163.178 14.9973 162.453 17.6C161.727 20.2027 161.045 22.8693 160.405 25.6C159.807 28.3307 159.317 30.9333 158.933 33.408C158.591 35.84 158.421 37.9733 158.421 39.808C158.421 41.472 158.591 42.752 158.933 43.648C159.317 44.5013 159.914 44.928 160.725 44.928C161.791 44.928 163.029 44.1813 164.437 42.688C165.887 41.152 167.466 38.7413 169.173 35.456L169.941 36.288C168.661 39.7013 166.997 42.5173 164.949 44.736C162.943 46.9547 160.831 48.064 158.613 48.064C156.778 48.064 155.455 47.2533 154.645 45.632C153.834 43.968 153.429 41.7707 153.429 39.04C153.429 37.8027 153.514 36.4373 153.685 34.944C153.855 33.4507 154.111 31.808 154.453 30.016C152.575 29.7173 150.869 29.4827 149.333 29.312C147.797 29.0987 146.367 28.9067 145.045 28.736C143.039 32.448 141.077 36.2667 139.157 40.192C137.279 44.0747 135.53 47.9147 133.909 51.712ZM154.965 27.456C155.562 24.768 156.266 22.0373 157.077 19.264C157.887 16.448 158.741 13.7813 159.637 11.264C160.575 8.74667 161.471 6.528 162.325 4.608C161.002 5.46133 159.509 6.912 157.845 8.96C156.181 10.9653 154.41 13.3973 152.533 16.256C150.698 19.072 148.799 22.1867 146.837 25.6C148.245 25.856 149.631 26.1547 150.997 26.496C152.405 26.8373 153.727 27.1573 154.965 27.456Z" fill="url(#paint2_linear_83_27)"/>
<path d="M118.386 47.808C116.893 47.808 115.698 47.4027 114.802 46.592C113.949 45.824 113.522 44.8 113.522 43.52C113.522 42.24 113.821 40.9174 114.418 39.552C115.015 38.144 115.591 36.7574 116.146 35.392C116.743 34.0267 117.042 32.8107 117.042 31.744C117.042 30.5067 116.679 29.568 115.954 28.928C115.229 28.2453 114.439 27.648 113.586 27.136C112.647 29.568 111.623 31.9147 110.514 34.176C109.405 36.3947 108.509 38.1014 107.826 39.296L107.122 37.952C107.719 36.8427 108.487 35.2427 109.426 33.152C110.407 31.0187 111.367 28.6293 112.306 25.984C111.879 25.5574 111.666 25.024 111.666 24.384C111.666 23.1467 112.007 22.1014 112.69 21.248C113.415 20.3947 113.991 19.968 114.418 19.968C114.93 19.968 115.229 20.2027 115.314 20.672C115.442 21.0987 115.506 21.4187 115.506 21.632C115.506 21.8454 115.399 22.2507 115.186 22.848C114.973 23.4454 114.845 23.8294 114.802 24C114.845 24.5547 115.186 25.088 115.826 25.6C116.509 26.0694 117.277 26.6027 118.13 27.2C119.026 27.7974 119.794 28.544 120.434 29.44C121.117 30.336 121.458 31.4667 121.458 32.832C121.458 34.0694 121.181 35.3494 120.626 36.672C120.114 37.9947 119.581 39.232 119.026 40.384C118.514 41.536 118.258 42.56 118.258 43.456C118.258 44.1387 118.429 44.608 118.77 44.864C119.154 45.0774 119.581 45.184 120.05 45.184C121.074 45.184 122.119 44.8854 123.186 44.288C124.295 43.648 125.362 42.8374 126.386 41.856C127.453 40.8747 128.391 39.8507 129.202 38.784C130.013 37.6747 130.61 36.6507 130.994 35.712L132.082 36.544C131.271 38.336 130.141 40.1067 128.69 41.856C127.239 43.6054 125.618 45.0347 123.826 46.144C122.077 47.2534 120.263 47.808 118.386 47.808Z" fill="url(#paint3_linear_83_27)"/>
<path d="M92.6621 48.96C90.0168 48.96 88.0115 48.2347 86.6461 46.784C85.2808 45.3333 84.5981 43.5413 84.5981 41.408C84.5981 39.5307 85.0675 37.5253 86.0061 35.392C86.9875 33.2587 88.2675 31.2533 89.8461 29.376C91.4675 27.4987 93.2381 25.984 95.1581 24.832C97.1208 23.68 99.0621 23.104 100.982 23.104C102.006 23.104 102.945 23.3813 103.798 23.936C104.694 24.448 105.142 25.5147 105.142 27.136C105.142 28.7573 104.673 30.272 103.734 31.68C102.795 33.088 101.537 34.3467 99.9581 35.456C98.3795 36.5653 96.6515 37.4827 94.7741 38.208C92.9395 38.8907 91.0835 39.3387 89.2061 39.552C89.1208 39.8933 89.0568 40.2347 89.0141 40.576C89.0141 40.8747 89.0141 41.1947 89.0141 41.536C89.0141 42.048 89.0568 42.6027 89.1421 43.2C89.2701 43.7973 89.5048 44.3733 89.8461 44.928C90.2301 45.4827 90.7421 45.9307 91.3821 46.272C92.0648 46.6133 92.9395 46.784 94.0061 46.784C95.8408 46.784 97.6541 46.272 99.4461 45.248C101.238 44.224 102.902 42.88 104.438 41.216C106.017 39.5093 107.339 37.632 108.406 35.584L109.366 36.288C108.214 38.848 106.742 41.088 104.95 43.008C103.158 44.8853 101.195 46.336 99.0621 47.36C96.9715 48.4267 94.8381 48.96 92.6621 48.96ZM89.6541 37.952C90.8061 37.6533 92.0861 37.1413 93.4941 36.416C94.9021 35.6907 96.2675 34.8373 97.5901 33.856C98.9128 32.832 100.001 31.7227 100.854 30.528C101.707 29.2907 102.134 28.0107 102.134 26.688C102.134 26.2187 102.049 25.8773 101.878 25.664C101.707 25.4507 101.366 25.344 100.854 25.344C99.8728 25.344 98.8061 25.728 97.6541 26.496C96.5448 27.2213 95.4568 28.2027 94.3901 29.44C93.3661 30.6773 92.4275 32.0427 91.5741 33.536C90.7208 34.9867 90.0808 36.4587 89.6541 37.952Z" fill="url(#paint4_linear_83_27)"/>
<path d="M63.9856 48.64C62.6203 48.64 61.6816 48.0213 61.1696 46.784C60.7003 45.5467 60.4443 44.0747 60.4016 42.368C60.4443 41.6 60.4869 40.7467 60.5296 39.808C60.6149 38.8267 60.7003 37.9093 60.7856 37.056C59.8469 38.848 58.8443 40.5973 57.7776 42.304C56.7109 43.968 55.5803 45.3333 54.3856 46.4C53.1909 47.5093 51.9323 48.064 50.6096 48.064C49.1589 48.064 47.9856 47.424 47.0896 46.144C46.1936 44.864 45.7456 43.328 45.7456 41.536C45.7456 40.2987 45.9376 38.8693 46.3216 37.248C46.7483 35.6267 47.2603 34.048 47.8576 32.512C48.4549 30.9333 49.0736 29.632 49.7136 28.608C50.3536 27.584 50.9296 27.072 51.4416 27.072C51.6549 27.072 52.1029 27.2 52.7856 27.456C53.5109 27.712 53.9163 28.0747 54.0016 28.544C53.5323 29.2267 52.9563 30.3147 52.2736 31.808C51.5909 33.2587 50.9936 34.8373 50.4816 36.544C49.9696 38.208 49.7136 39.7227 49.7136 41.088C49.7136 41.4293 49.7563 41.9413 49.8416 42.624C49.9269 43.264 50.1189 43.8613 50.4176 44.416C50.7589 44.9707 51.2496 45.248 51.8896 45.248C52.8709 45.248 53.8949 44.6507 54.9616 43.456C56.0709 42.2187 57.1589 40.6827 58.2256 38.848C59.3349 37.0133 60.3803 35.1573 61.3616 33.28C61.7029 31.488 61.9803 30.1867 62.1936 29.376C62.4496 28.5653 62.7056 28.0533 62.9616 27.84C63.2603 27.584 63.6016 27.456 63.9856 27.456C64.6256 27.456 65.1163 27.6053 65.4576 27.904C65.8416 28.16 66.0336 28.544 66.0336 29.056C66.0336 29.0987 66.0123 29.2267 65.9696 29.44C65.9269 29.6107 65.8843 29.76 65.8416 29.888C65.5856 30.8693 65.3296 32.0853 65.0736 33.536C64.8176 34.9867 64.6043 36.5227 64.4336 38.144C64.2629 39.7227 64.1776 41.2373 64.1776 42.688C64.1776 43.6693 64.2629 44.4373 64.4336 44.992C64.6469 45.5467 65.0096 45.824 65.5216 45.824C66.1616 45.824 66.8869 45.44 67.6976 44.672C68.5509 43.904 69.4256 42.9013 70.3216 41.664C71.2176 40.384 72.0923 38.9973 72.9456 37.504C73.7989 36.0107 74.5669 34.5173 75.2496 33.024C75.2496 30.8053 75.3989 29.12 75.6976 27.968C76.0389 26.7733 76.4656 25.9627 76.9776 25.536C77.4896 25.1093 78.0229 24.896 78.5776 24.896C79.4736 24.896 80.1136 25.216 80.4976 25.856C80.8816 26.4533 81.0736 26.9867 81.0736 27.456C81.0736 27.7973 80.9883 28.1387 80.8176 28.48C80.6469 28.7787 80.4763 29.12 80.3056 29.504C79.9643 30.144 79.6229 30.9547 79.2816 31.936C78.9829 32.8747 78.8336 34.1547 78.8336 35.776C78.8336 36.4587 78.8976 37.184 79.0256 37.952C79.1963 38.72 79.4736 39.36 79.8576 39.872C80.2843 40.3413 80.9243 40.576 81.7776 40.576C82.6309 40.576 83.4629 40.2347 84.2736 39.552C85.1269 38.8693 85.9803 37.632 86.8336 35.84L87.7936 36.544C86.8549 38.72 85.8096 40.192 84.6576 40.96C83.5056 41.728 82.3963 42.112 81.3296 42.112C79.9643 42.112 78.8123 41.6427 77.8736 40.704C76.9349 39.7653 76.2309 38.4427 75.7616 36.736C74.6949 38.656 73.5003 40.5333 72.1776 42.368C70.8976 44.2027 69.5536 45.696 68.1456 46.848C66.7376 48.0427 65.3509 48.64 63.9856 48.64Z" fill="url(#paint5_linear_83_27)"/>
<path d="M26.5975 48.1921C24.7202 48.1921 23.3975 47.5948 22.6295 46.4001C21.9042 45.2481 21.5415 43.8828 21.5415 42.3041C21.5415 40.9814 21.7548 39.6161 22.1815 38.2081C22.6082 36.7574 23.1842 35.4134 23.9095 34.1761C24.6348 32.9388 25.4455 31.9574 26.3415 31.2321C27.2375 30.4641 28.1335 30.0801 29.0295 30.0801C29.2855 30.0801 29.5415 30.1228 29.7975 30.2081C30.0962 30.2508 30.3522 30.3361 30.5655 30.4641C30.1388 30.9334 29.6482 31.6374 29.0935 32.5761C28.5815 33.4721 28.0908 34.4961 27.6215 35.6481C27.1522 36.7574 26.7682 37.8881 26.4695 39.0401C26.1708 40.1494 26.0215 41.1094 26.0215 41.9201C26.0215 43.0721 26.2135 43.9468 26.5975 44.5441C27.0242 45.0988 27.6002 45.3761 28.3255 45.3761C29.1788 45.3761 30.2028 44.9068 31.3975 43.9681C32.5922 42.9868 33.7655 41.8134 34.9175 40.4481C33.6802 39.3814 32.7415 38.0801 32.1015 36.5441C31.4615 34.9654 31.1415 33.2588 31.1415 31.4241C31.1415 30.1868 31.3762 28.9708 31.8455 27.7761C32.3148 26.5814 33.0188 25.6001 33.9575 24.8321C34.9388 24.0214 36.1548 23.6161 37.6055 23.6161C39.3975 23.6161 40.6135 24.1068 41.2535 25.0881C41.8935 26.0268 42.2135 27.2001 42.2135 28.6081C42.2135 30.2721 41.8082 32.1068 40.9975 34.1121C40.1868 36.1174 39.1628 38.0374 37.9255 39.8721C38.6082 40.2134 39.3548 40.3841 40.1655 40.3841C40.8482 40.3841 41.6162 40.2561 42.4695 40.0001C43.3228 39.7014 44.1762 39.2108 45.0295 38.5281C45.8828 37.8454 46.5655 36.9068 47.0775 35.7121L47.9735 36.4161C47.0775 38.5068 45.8402 40.0001 44.2615 40.8961C42.7255 41.7494 41.2322 42.1761 39.7815 42.1761C39.2268 42.1761 38.6935 42.1334 38.1815 42.0481C37.6695 41.9201 37.1788 41.7708 36.7095 41.6001C35.2588 43.4348 33.6375 44.9921 31.8455 46.2721C30.0535 47.5521 28.3042 48.1921 26.5975 48.1921ZM36.2615 38.6561C37.2855 37.0774 38.1602 35.4348 38.8855 33.7281C39.6108 32.0214 39.9735 30.4001 39.9735 28.8641C39.9735 27.7121 39.8028 26.8801 39.4615 26.3681C39.1202 25.8134 38.6508 25.5361 38.0535 25.5361C37.2428 25.5361 36.3895 26.1548 35.4935 27.3921C34.5975 28.5868 34.1495 30.1014 34.1495 31.9361C34.1495 33.0454 34.3202 34.2401 34.6615 35.5201C35.0455 36.8001 35.5788 37.8454 36.2615 38.6561Z" fill="url(#paint6_linear_83_27)"/>
<path d="M4.41616 51.7121C3.26416 51.7121 2.17616 51.3921 1.15216 50.7521C0.170825 50.1548 215.319 51.7334 215.319 50.7521C215.319 50.2401 -0.213175 47.2748 0.000158263 46.5921C0.213492 45.9521 0.405492 45.3548 0.576158 44.8001C1.94149 40.6614 3.20016 36.8001 4.35216 33.2161C5.54683 29.6321 6.74149 26.1548 7.93616 22.7841C9.13083 19.4134 10.3895 16.0428 11.7122 12.6721C13.0348 9.30142 14.5282 5.78142 16.1922 2.11209C14.5708 2.45342 13.1415 2.90142 11.9042 3.45609C10.6668 4.01075 9.66416 4.50142 8.89616 4.92809C8.17083 5.35475 7.65883 5.56809 7.36016 5.56809C7.18949 5.56809 6.93349 5.46142 6.59216 5.24809C6.25083 5.03475 5.93082 4.77875 5.63216 4.48009C5.37616 4.13875 5.24816 3.84009 5.24816 3.58409C6.40016 3.11475 7.74416 2.60275 9.28016 2.04809C10.8162 1.49342 12.4802 1.02409 14.2722 0.640087C16.0642 0.256087 17.8775 0.0640869 19.7122 0.0640869C21.6322 0.0640869 23.5735 0.320087 25.5362 0.832088C27.5415 1.34409 29.3762 2.13342 31.0402 3.20009C32.7042 4.22409 34.0482 5.52542 35.0722 7.10409C36.0962 8.64009 36.6082 10.4321 36.6082 12.4801C36.6082 14.6988 36.0962 16.6188 35.0722 18.2401C34.0908 19.8614 32.7682 21.2268 31.1042 22.3361C29.4828 23.4028 27.7122 24.2774 25.7922 24.9601C23.9148 25.6001 22.0375 26.1121 20.1602 26.4961C18.2828 26.8374 16.5975 27.0721 15.1042 27.2001C13.6108 27.2854 12.5228 27.3281 11.8402 27.3281H11.2642C10.0268 31.6801 8.81083 35.9894 7.61616 40.2561C6.46416 44.4801 5.39749 48.2988 4.41616 51.7121ZM11.6482 25.9841C13.9948 25.8561 16.3628 25.4721 18.7522 24.8321C21.1842 24.1921 23.3815 23.2748 25.3442 22.0801C27.3495 20.8854 28.9495 19.4134 30.1442 17.6641C31.3815 15.8721 32.0002 13.7814 32.0002 11.3921C32.0002 9.17342 31.4455 7.36009 30.3362 5.95209C29.2268 4.54409 27.7762 3.49875 25.9842 2.81609C24.2348 2.09075 22.3575 1.72809 20.3522 1.72809C18.8162 4.80009 17.3015 8.46942 15.8082 12.7361C14.3575 16.9601 12.9708 21.3761 11.6482 25.9841Z" fill="url(#paint7_linear_83_27)"/>
<path d="M8.76518 66.311C7.85518 66.311 7.32218 65.895 7.25718 65.076C6.69818 65.921 6.00918 66.311 5.28118 66.311C4.35818 66.311 3.68218 65.713 3.68218 64.361C3.68218 62.268 5.30718 60.149 6.98418 60.149C7.46518 60.149 7.80318 60.357 8.06318 60.786L8.96018 60.188L9.14218 60.318L8.37518 64.491C8.19318 65.505 8.40118 65.869 9.03818 65.869C10.1042 65.869 11.4432 64.543 11.4432 62.19C11.4432 59.629 9.66218 57.991 7.21818 57.991C3.90318 57.991 1.47218 60.773 1.47218 64.101C1.47218 67.078 3.47418 68.768 6.03518 68.768C7.12718 68.768 8.03718 68.547 8.83018 68.131L9.01218 68.443C8.12818 68.924 7.10118 69.21 5.93118 69.21C3.04518 69.21 0.874184 67.468 0.874184 64.179C0.874184 60.487 3.60418 57.536 7.30918 57.536C10.0782 57.536 11.9502 59.408 11.9502 62.255C11.9502 64.92 10.2082 66.311 8.76518 66.311ZM7.20518 64.751L7.85518 61.189C7.63418 60.851 7.36118 60.721 7.03618 60.721C5.90518 60.721 4.85218 62.489 4.85218 64.127C4.85218 65.089 5.26818 65.57 5.85318 65.57C6.23018 65.57 6.62018 65.414 7.20518 64.751ZM14.3459 56.834C18.1289 58.459 16.9719 61.267 15.6849 60.175C15.5679 59.096 14.8659 57.796 14.2029 56.925L14.3459 56.834ZM22.5619 56.743L24.3169 57.536C24.2519 57.679 24.0699 57.783 23.7839 57.731C22.9259 58.797 21.8859 59.824 20.9369 60.513L20.7809 60.383C21.3269 59.525 22.0419 58.043 22.5619 56.743ZM18.3889 56.028L20.1439 56.184C20.1179 56.366 20.0009 56.496 19.6629 56.548V61.098H22.8999L23.6929 60.123C23.6929 60.123 24.5769 60.786 25.1099 61.267C25.0839 61.41 24.9409 61.475 24.7589 61.475H20.9889V66.246C20.9889 66.48 21.0539 66.545 21.4959 66.545H22.6529C23.1339 66.545 23.5239 66.545 23.7059 66.519C23.8749 66.506 23.9269 66.467 23.9919 66.324C24.1349 66.051 24.3299 65.206 24.5509 64.27H24.7069L24.7459 66.415C25.1099 66.558 25.1879 66.701 25.1879 66.961C25.1879 67.494 24.6939 67.728 22.5619 67.728H21.2229C20.0009 67.728 19.7149 67.481 19.7149 66.571V61.475H18.1809C17.9079 64.816 16.7899 66.961 13.0069 68.092L12.9419 67.923C15.8669 66.454 16.6339 64.4 16.7509 61.475H13.1239L13.0069 61.098H18.3889V56.028ZM27.5409 61.969C27.1119 61.969 26.5919 61.28 26.4619 60.994C26.3839 60.812 26.3579 60.448 26.3709 60.162L26.5659 60.097C26.8779 60.487 27.0989 60.786 27.4499 60.786C27.9179 60.786 29.0879 60.656 29.8679 60.578C29.8549 59.837 29.8419 59.018 29.7769 58.706C29.7119 58.407 29.4259 58.303 28.8409 58.173L28.8279 57.952C29.1139 57.822 29.4519 57.705 29.7249 57.705C30.2059 57.705 31.1159 58.121 31.1159 58.576C31.1159 58.862 30.9339 58.875 30.8949 59.33C30.8819 59.564 30.8689 60.019 30.8689 60.461L33.4039 60.201C33.4169 59.161 33.4039 58.407 33.3389 57.861C33.2999 57.549 32.9879 57.458 32.3899 57.354V57.12C32.7149 56.964 33.0529 56.834 33.3389 56.834C34.0019 56.834 34.8599 57.406 34.8599 57.783C34.8599 58.082 34.5999 58.017 34.5609 58.667L34.5219 60.097C35.8089 59.98 35.9519 59.863 36.2249 59.863C36.8879 59.863 37.6939 60.175 37.6939 60.695C37.6939 61.033 37.5249 61.111 37.2259 61.111C36.8229 61.111 36.2249 60.942 35.0549 60.942L34.5219 60.955C34.4699 62.671 34.3659 64.218 33.5989 65.284C32.8579 66.35 31.5579 67.182 29.8809 67.689L29.7379 67.442C30.7779 66.909 31.9219 66.168 32.6499 64.972C33.2219 64.049 33.3909 62.528 33.4039 61.02C32.5329 61.072 31.5969 61.163 30.8689 61.254V63.802C30.8689 64.322 30.7129 64.556 30.3489 64.556C29.9329 64.556 29.6339 63.867 29.6339 63.412C29.6339 63.035 29.8419 62.645 29.8679 61.384C29.2829 61.475 28.8019 61.566 28.4509 61.67C28.1129 61.774 27.8139 61.969 27.5409 61.969ZM44.8919 67.611C44.3199 67.611 44.0469 66.961 44.0469 66.402C44.0469 66.155 44.1379 65.882 44.1899 65.453C44.3199 64.335 44.3589 62.58 44.3329 61.995C44.3199 61.774 44.2939 61.618 44.2159 61.449C43.3449 62.19 41.4339 63.646 39.1329 64.478L38.9769 64.205C41.9669 62.515 44.4759 59.915 45.4119 58.511C45.6459 58.16 45.7629 57.913 45.7629 57.77C45.7629 57.536 45.4639 57.315 44.9959 57.081L45.0739 56.86C45.3989 56.847 45.7629 56.847 46.1009 56.964C46.7249 57.159 47.4139 57.822 47.4139 58.225C47.4139 58.563 47.1409 58.55 46.7769 58.927C46.3089 59.408 45.6589 60.11 44.8659 60.864C45.2689 61.137 45.5809 61.384 45.5809 61.605C45.5809 61.813 45.4769 62.021 45.4639 62.372C45.3859 64.179 45.4769 66.103 45.4769 66.818C45.4769 67.338 45.2819 67.611 44.8919 67.611ZM53.9524 60.591C53.6144 60.591 53.2764 60.318 53.0294 59.993C52.8214 59.733 52.6264 59.395 52.5224 59.057L52.7044 58.927C53.1334 59.278 53.5624 59.538 54.0694 59.538C54.7064 59.538 55.7984 59.421 56.9294 59.252C58.7624 58.966 58.6974 58.602 59.0224 58.602C59.6464 58.602 60.5824 58.992 60.5824 59.356C60.5824 59.629 60.4394 59.85 60.0104 59.889C59.5164 59.941 58.1774 60.058 56.8254 60.214C57.2674 60.409 57.6184 60.656 57.6184 60.929C57.6184 61.176 57.4364 61.436 57.3714 61.8C57.2804 62.359 57.1894 63.347 57.1374 64.231C58.0474 64.14 58.9184 64.075 59.5944 64.036C60.2704 63.984 60.4394 63.828 60.6214 63.828C61.2454 63.828 62.4154 64.452 62.4154 64.946C62.4154 65.245 62.2204 65.453 61.9084 65.453C61.4664 65.453 60.3614 65.076 58.7624 65.037C57.4234 64.998 54.9924 65.245 53.7834 65.557C53.2114 65.713 52.8474 65.934 52.5094 65.934C52.0544 65.934 51.3654 65.245 51.1964 64.881C51.1054 64.673 51.0664 64.465 51.0404 64.075L51.2484 63.997C51.5734 64.348 51.9244 64.621 52.4184 64.621C52.9254 64.621 54.4334 64.478 56.0454 64.322C56.0974 63.438 56.1234 62.216 56.1234 61.566C56.1234 61.02 56.0194 60.656 55.7984 60.344C54.9274 60.461 54.3164 60.591 53.9524 60.591ZM67.4854 66.844C66.8354 66.844 65.9904 66.142 65.7174 65.674C65.5744 65.414 65.4574 64.946 65.4444 64.634L65.6394 64.517C65.9774 64.881 66.4194 65.336 66.8744 65.336C68.0964 65.336 73.0494 61.839 74.9084 59.226L75.1684 59.395C73.6604 62.216 71.2684 64.413 68.3304 66.246C67.9794 66.467 67.8234 66.844 67.4854 66.844ZM68.6164 60.981C68.2784 60.981 68.0574 60.786 67.7194 60.344C67.0954 59.538 66.7054 59.07 65.5094 58.199L65.6524 57.965C67.3034 58.264 69.2924 59.07 69.2924 60.279C69.2924 60.669 69.0194 60.981 68.6164 60.981ZM86.6178 66.727C86.1758 66.727 85.9028 66.324 85.3568 65.609C84.6548 64.634 84.0048 63.763 82.8088 63.009C81.6128 64.257 79.6628 65.973 76.7898 66.935L76.6208 66.649C79.6888 65.076 82.8348 61.865 83.9528 59.265C84.0178 59.083 83.9398 59.044 83.7968 59.057C83.1078 59.148 81.3788 59.616 80.7028 59.811C80.2868 59.941 80.1828 60.227 79.8318 60.227C79.3378 60.227 78.7658 59.551 78.6098 59.135C78.5318 58.914 78.4798 58.602 78.4798 58.251L78.7268 58.147C78.9868 58.498 79.2858 58.914 79.7278 58.914C80.5468 58.914 82.9518 58.472 83.6148 58.303C83.9138 58.225 84.1088 57.9 84.3428 57.9C84.8238 57.9 85.8638 58.771 85.8638 59.135C85.8638 59.447 85.3438 59.616 85.1878 59.85C84.7458 60.513 84.0178 61.683 83.1338 62.658C85.2528 63.425 87.2678 64.751 87.2678 66.051C87.2678 66.389 87.0338 66.727 86.6178 66.727ZM98.3438 57.562H96.7578V61.501V61.54H98.3438V57.562ZM89.2048 57.146H92.6498L93.3648 56.249C93.3648 56.249 94.0148 56.756 94.5088 57.185H99.2408L99.9558 56.262C99.9558 56.262 100.749 56.912 101.23 57.354C101.204 57.497 101.061 57.562 100.879 57.562H99.5658V61.54H99.7348L100.372 60.604C100.372 60.604 101.1 61.267 101.503 61.709C101.464 61.852 101.347 61.917 101.165 61.917H99.5658V67.715C99.5528 67.806 99.1888 68.079 98.5648 68.079H98.3438V61.917H96.7578C96.7058 64.296 96.2248 66.636 93.1438 68.118L93.0138 67.988C95.1458 66.324 95.5488 64.257 95.5878 61.917H94.2358L94.1318 61.54H95.5878V61.514V57.562H94.4698L94.4568 57.51L94.3008 57.523H92.1818C91.9998 58.654 91.7268 59.733 91.3238 60.734L91.5578 60.825H92.5978L93.1568 60.227L94.3398 61.124C94.2618 61.215 94.0928 61.319 93.8718 61.358V66.298C93.8588 66.376 93.2998 66.61 92.9098 66.61H92.7278V65.726H91.3888V66.896C91.3888 66.987 91.0508 67.247 90.4788 67.247H90.2838V62.762C89.9588 63.269 89.6078 63.737 89.2048 64.179L89.0358 64.036C90.0498 62.242 90.6218 59.863 90.9078 57.523H89.3088L89.2048 57.146ZM92.7278 61.202H91.3888V65.349H92.7278V61.202ZM102.894 62.996H106.56C106.638 62.359 106.638 61.683 106.599 60.994L108.536 61.137C108.51 61.358 108.341 61.475 108.055 61.501C108.042 62.021 108.003 62.515 107.925 62.996H109.797L110.447 62.294L111.656 63.295C111.578 63.386 111.448 63.451 111.201 63.49V66.402C111.201 66.571 111.253 66.61 111.552 66.61H112.371C112.683 66.61 112.969 66.61 113.086 66.61C113.203 66.597 113.268 66.571 113.333 66.454C113.437 66.259 113.619 65.635 113.814 64.933H113.97L114.009 66.506C114.347 66.636 114.412 66.792 114.412 67.039C114.412 67.546 113.905 67.819 112.241 67.819H111.201C110.122 67.819 109.94 67.559 109.94 66.701V63.373H107.847C107.392 65.544 106.04 67.221 102.322 68.079L102.231 67.91C105.091 66.883 106.17 65.271 106.495 63.373H103.011L102.894 62.996ZM104.012 56.86H104.207C104.311 57.159 104.376 57.445 104.402 57.705H107.574V56.028L109.303 56.184C109.277 56.353 109.173 56.47 108.861 56.522V57.705H112.098L112.826 56.977L114.087 58.186C113.983 58.29 113.84 58.316 113.567 58.329C113.112 58.719 112.293 59.213 111.695 59.499L111.565 59.408C111.747 59.044 111.968 58.498 112.124 58.069H110.148V60.071C110.148 60.227 110.187 60.279 110.551 60.279H111.565C111.955 60.279 112.306 60.279 112.462 60.253C112.605 60.253 112.683 60.227 112.761 60.149C112.865 60.032 113.021 59.681 113.177 59.252H113.32L113.372 60.162C113.71 60.292 113.801 60.435 113.801 60.656C113.801 61.176 113.359 61.371 111.435 61.358H110.239C109.108 61.358 108.913 61.137 108.913 60.318V58.069H107.47C107.015 60.292 105.52 61.514 102.686 62.112L102.634 61.93C104.818 61.085 105.793 59.876 106.066 58.069H104.428C104.428 58.966 104.038 59.564 103.596 59.837C103.193 60.097 102.595 60.019 102.426 59.564C102.296 59.161 102.543 58.836 102.92 58.641C103.453 58.381 104.012 57.666 104.012 56.86ZM115.348 57.198H119.586L120.301 56.262C120.301 56.275 121.094 56.912 121.575 57.367C121.536 57.51 121.406 57.575 121.224 57.575H115.452L115.348 57.198ZM119.43 59.733H117.337V61.696L117.324 62.567H119.43V59.733ZM116.128 59.356V58.758L117.532 59.356H119.3L119.885 58.719L121.133 59.681C121.055 59.772 120.86 59.889 120.587 59.941V63.425C120.574 63.516 120.002 63.737 119.612 63.737H119.43V62.944H117.311C117.207 64.647 116.804 66.662 115.218 68.118L115.075 67.988C116.063 66.077 116.128 63.724 116.128 61.696V59.356ZM125.748 56.067L127.178 57.224C127.048 57.367 126.788 57.38 126.424 57.263C125.553 57.523 124.24 57.822 122.966 58.017V60.435H125.475L126.164 59.512C126.164 59.512 126.944 60.149 127.412 60.604C127.373 60.747 127.256 60.812 127.074 60.812H125.852V67.741C125.852 67.819 125.462 68.105 124.825 68.105H124.604V60.812H122.966V60.838C122.966 63.217 122.641 66.194 119.469 68.092L119.313 67.936C121.419 65.869 121.757 63.308 121.757 60.825V57.224L122.966 57.614C124.019 57.146 125.137 56.522 125.748 56.067Z" fill="black"/>
<defs>
<linearGradient id="paint0_linear_83_27" x1="319.319" y1="152.144" x2="-6.68069" y2="-12.856" gradientUnits="userSpaceOnUse">
<stop stop-color="#5000FD"/>
<stop offset="1" stop-color="#666666"/>
</linearGradient>
<linearGradient id="paint1_linear_83_27" x1="319.319" y1="152.144" x2="-6.68069" y2="-12.856" gradientUnits="userSpaceOnUse">
<stop stop-color="#5000FD"/>
<stop offset="1" stop-color="#666666"/>
</linearGradient>
<linearGradient id="paint2_linear_83_27" x1="319.319" y1="152.144" x2="-6.68069" y2="-12.856" gradientUnits="userSpaceOnUse">
<stop stop-color="#5000FD"/>
<stop offset="1" stop-color="#666666"/>
</linearGradient>
<linearGradient id="paint3_linear_83_27" x1="319.319" y1="152.144" x2="-6.6807" y2="-12.856" gradientUnits="userSpaceOnUse">
<stop stop-color="#5000FD"/>
<stop offset="1" stop-color="#666666"/>
</linearGradient>
<linearGradient id="paint4_linear_83_27" x1="319.319" y1="152.144" x2="-6.68069" y2="-12.856" gradientUnits="userSpaceOnUse">
<stop stop-color="#5000FD"/>
<stop offset="1" stop-color="#666666"/>
</linearGradient>
<linearGradient id="paint5_linear_83_27" x1="319.319" y1="152.144" x2="-6.68068" y2="-12.856" gradientUnits="userSpaceOnUse">
<stop stop-color="#5000FD"/>
<stop offset="1" stop-color="#666666"/>
</linearGradient>
<linearGradient id="paint6_linear_83_27" x1="319.319" y1="152.144" x2="-6.68069" y2="-12.856" gradientUnits="userSpaceOnUse">
<stop stop-color="#5000FD"/>
<stop offset="1" stop-color="#666666"/>
</linearGradient>
<linearGradient id="paint7_linear_83_27" x1="319.319" y1="152.144" x2="-6.68068" y2="-12.856" gradientUnits="userSpaceOnUse">
<stop stop-color="#09AAEE"/>
<stop offset="1" stop-color="#7A0B74"/>
</linearGradient>
</defs>
</svg>
