<?xml version="1.0" encoding="UTF-8"?>
<svg id="svg591" xmlns="http://www.w3.org/2000/svg" version="1.1" xmlns:svg="http://www.w3.org/2000/svg" viewBox="0 0 682.7 682.7">
  <!-- Generator: Adobe Illustrator 29.4.0, SVG Export Plug-In . SVG Version: 2.1.0 Build 152)  -->
  <defs>
    <style>
      .st0 {
        fill: none;
        stroke: #fff;
        stroke-linecap: round;
        stroke-linejoin: round;
        stroke-width: 40px;
      }
    </style>
  </defs>
  <path id="path609" class="st0" d="M526.7,60H73.3c-29.5,0-53.3,23.9-53.3,53.3v80h560v-80c0-29.5-23.9-53.3-53.3-53.3Z"/>
  <path id="path613" class="st0" d="M132,100V20"/>
  <path id="path617" class="st0" d="M468,100V20"/>
  <path id="path621" class="st0" d="M356,100V20"/>
  <path id="path625" class="st0" d="M244,100V20"/>
  <path id="path629" class="st0" d="M342.7,283.3h33.3"/>
  <path id="path633" class="st0" d="M224,283.3h33.3"/>
  <path id="path637" class="st0" d="M461.3,283.3h33.3"/>
  <path id="path641" class="st0" d="M105.3,373.3h33.3"/>
  <path id="path645" class="st0" d="M224,373.3h33.3"/>
  <path id="path649" class="st0" d="M342.7,373.3h33.3"/>
  <path id="path653" class="st0" d="M105.3,463.3h33.3"/>
  <path id="path657" class="st0" d="M224,463.3h33.3"/>
  <path id="path661" class="st0" d="M662.7,516c0,81-65.7,146.7-146.7,146.7s-146.7-65.7-146.7-146.7,65.7-146.7,146.7-146.7,146.7,65.7,146.7,146.7Z"/>
  <path id="path665" class="st0" d="M516,449.3v66.7h66.7"/>
  <path id="path669" class="st0" d="M580,384v-190.7H20v320c0,22.1,17.9,40,40,40h314.1"/>
</svg>