<?xml version="1.0" encoding="UTF-8"?>
<svg xmlns="http://www.w3.org/2000/svg" version="1.1" viewBox="0 0 213 213">
  <defs>
    <style>
      .cls-1 {
        fill: #fff;
        fill-rule: evenodd;
      }
    </style>
  </defs>
  <!-- Generator: Adobe Illustrator 28.7.6, SVG Export Plug-In . SVG Version: 1.2.0 Build 188)  -->
  <g>
    <g id="_レイヤー_1" data-name="レイヤー_1">
      <path class="cls-1" d="M90.4,186.4c-2.2,0-4.3-.8-6-2.3L3.2,113.3c-2-1.7-3.2-4.2-3.2-6.8s1.1-5.1,3.1-6.8L84.4,28.8c1.7-1.4,3.8-2.2,6-2.2s5.1,1.1,6.8,3.1c3.3,3.8,2.9,9.6-.8,12.9l-62.9,54.8h170.3c5,0,9.2,4.1,9.2,9.2s-4.1,9.2-9.2,9.2H33.5l62.9,54.8c1.8,1.6,3,3.8,3.1,6.3.2,2.4-.6,4.7-2.2,6.6-1.8,2-4.3,3.2-6.9,3.2Z"/>
    </g>
  </g>
</svg>