<?xml version="1.0" encoding="utf-8"?>
<!-- Generator: Adobe Illustrator 25.2.3, SVG Export Plug-In . SVG Version: 6.00 Build 0)  -->
<svg version="1.1" xmlns="http://www.w3.org/2000/svg" xmlns:xlink="http://www.w3.org/1999/xlink" x="0px" y="0px"
	 viewBox="0 0 64 64" enable-background="new 0 0 64 64" xml:space="preserve">
<g id="Layer_1">
</g>
<g id="Layer_2">
</g>
<g id="Layer_3">
</g>
<g id="Layer_4">
</g>
<g id="Layer_5">
</g>
<g id="Layer_6">
</g>
<g id="Layer_7">
</g>
<g id="Layer_8">
</g>
<g id="Layer_9">
</g>
<g id="Layer_10">
</g>
<g id="Layer_11">
</g>
<g id="Layer_12">
</g>
<g id="Layer_13">
</g>
<g id="Layer_14">
</g>
<g id="Layer_15">
</g>
<g id="Layer_16">
</g>
<g id="Layer_17">
</g>
<g id="Layer_18">
</g>
<g id="Layer_19">
</g>
<g id="Layer_20">
</g>
<g id="Layer_21">
</g>
<g id="Layer_22">
</g>
<g id="Layer_23">
</g>
<g id="Layer_24">
</g>
<g id="Layer_25">
</g>
<g id="Layer_26">
</g>
<g id="Layer_27">
</g>
<g id="Layer_28">
</g>
<g id="Layer_29">
</g>
<g id="Layer_30">
</g>
<g id="Layer_31">
	<g>
		<path d="M29,58h-2c-0.6,0-1,0.4-1,1s0.4,1,1,1h2c0.6,0,1-0.4,1-1S29.6,58,29,58z"/>
		<path d="M53.1,38.1l-3-3C49,34,47.2,33.9,46,34.8V5c0-2.8-2.2-5-5-5h-2H17h-2c-2.8,0-5,2.2-5,5v54c0,2.8,2.2,5,5,5h26
			c2.8,0,5-2.2,5-5V47.7c1.6-0.4,3.1-1.2,4.4-2.4l2.7-2.7c0.6-0.6,0.9-1.4,0.9-2.2S53.7,38.7,53.1,38.1z M44,59c0,1.7-1.3,3-3,3H15
			c-1.7,0-3-1.3-3-3V5c0-1.7,1.3-3,3-3h1.4l1.2,2.3c0.5,1,1.5,1.7,2.7,1.7h15.5c1.1,0,2.2-0.6,2.7-1.7L39.6,2H41c1.7,0,3,1.3,3,3
			v31.6c-1,0.6-2.1,0.7-3.1,0.2c-3.3-1.7-5.9-4.2-7.6-7.6c-0.6-1.2-0.4-2.7,0.6-3.8l1-1c1.2-1.2,1.2-3.2,0-4.4l-3-3
			c-1.2-1.2-3.2-1.2-4.4,0l-2.7,2.7c-3.3,3.3-3.6,8.5-0.9,12.2c4,5.4,8.8,10.2,14.3,14.3c1.7,1.2,3.6,1.8,5.6,1.8c0.1,0,0.2,0,0.3,0
			V59z"/>
	</g>
</g>
</svg>
