<svg width="218" height="71" viewBox="0 0 218 71" fill="none" xmlns="http://www.w3.org/2000/svg">
<path d="M201.035 48.96C198.389 48.96 196.384 48.2347 195.019 46.784C193.653 45.3333 192.971 43.5413 192.971 41.408C192.971 39.5307 193.44 37.5253 194.379 35.392C195.36 33.2587 196.64 31.2533 198.219 29.376C199.84 27.4987 201.611 25.984 203.531 24.832C205.493 23.68 207.435 23.104 209.355 23.104C210.379 23.104 211.317 23.3813 212.171 23.936C213.067 24.448 213.515 25.5147 213.515 27.136C213.515 28.7573 213.045 30.272 212.107 31.68C211.168 33.088 209.909 34.3467 208.331 35.456C206.752 36.5653 205.024 37.4827 203.147 38.208C201.312 38.8907 199.456 39.3387 197.579 39.552C197.493 39.8933 197.429 40.2347 197.387 40.576C197.387 40.8747 197.387 41.1947 197.387 41.536C197.387 42.048 197.429 42.6027 197.515 43.2C197.643 43.7973 197.877 44.3733 198.219 44.928C198.603 45.4827 199.115 45.9307 199.755 46.272C200.437 46.6133 201.312 46.784 202.379 46.784C204.213 46.784 206.027 46.272 207.819 45.248C209.611 44.224 211.275 42.88 212.811 41.216C214.389 39.5093 215.712 37.632 216.779 35.584L217.739 36.288C216.587 38.848 215.115 41.088 213.323 43.008C211.531 44.8853 209.568 46.336 207.435 47.36C205.344 48.4267 203.211 48.96 201.035 48.96ZM198.027 37.952C199.179 37.6533 200.459 37.1413 201.867 36.416C203.275 35.6907 204.64 34.8373 205.963 33.856C207.285 32.832 208.373 31.7227 209.227 30.528C210.08 29.2907 210.507 28.0107 210.507 26.688C210.507 26.2187 210.421 25.8773 210.251 25.664C210.08 25.4507 209.739 25.344 209.227 25.344C208.245 25.344 207.179 25.728 206.027 26.496C204.917 27.2213 203.829 28.2027 202.763 29.44C201.739 30.6773 200.8 32.0427 199.947 33.536C199.093 34.9867 198.453 36.4587 198.027 37.952Z" fill="white"/>
<path d="M171.431 64.064C170.45 64.064 169.554 63.7654 168.743 63.168C167.932 62.5707 167.527 61.5894 167.527 60.224C167.527 58.9014 167.932 57.6854 168.743 56.576C169.511 55.5094 170.514 54.5067 171.751 53.568C173.031 52.672 174.396 51.84 175.847 51.072C177.34 50.304 178.77 49.5787 180.135 48.896C180.69 47.5307 181.202 46.0587 181.671 44.48C182.183 42.8587 182.674 41.1094 183.143 39.232C181.564 41.408 179.9 43.2214 178.151 44.672C176.444 46.1227 174.716 46.848 172.967 46.848C171.346 46.848 170.087 46.272 169.191 45.12C168.338 43.9254 167.911 42.3894 167.911 40.512C167.911 38.2934 168.444 36.1814 169.511 34.176C170.62 32.1707 172.05 30.4 173.799 28.864C175.591 27.328 177.468 26.1334 179.431 25.28C181.436 24.384 183.335 23.936 185.127 23.936C186.407 23.936 187.324 24.1494 187.879 24.576C188.476 25.0027 188.775 25.5147 188.775 26.112C188.775 26.5387 188.647 26.88 188.391 27.136C188.178 27.3494 188.028 27.4774 187.943 27.52C187.644 27.136 187.282 26.88 186.855 26.752C186.428 26.5814 185.895 26.496 185.255 26.496C183.591 26.496 181.97 26.9867 180.391 27.968C178.855 28.9494 177.49 30.208 176.295 31.744C175.143 33.2374 174.204 34.7947 173.479 36.416C172.796 38.0374 172.455 39.5094 172.455 40.832C172.455 41.8134 172.647 42.56 173.031 43.072C173.458 43.5414 173.991 43.776 174.631 43.776C175.826 43.776 177.276 42.9867 178.983 41.408C180.732 39.7867 182.418 37.824 184.039 35.52C184.124 35.008 184.21 34.56 184.295 34.176C184.423 33.7494 184.551 33.2374 184.679 32.64C184.892 31.7014 185.255 30.8267 185.767 30.016C186.322 29.2054 187.132 28.8 188.199 28.8C188.412 28.8 188.626 28.8214 188.839 28.864C189.095 28.9067 189.372 28.9707 189.671 29.056C189.671 29.7387 189.458 30.976 189.031 32.768C188.647 34.56 188.071 36.6507 187.303 39.04C186.578 41.4294 185.746 43.8827 184.807 46.4C186.172 45.76 187.538 44.928 188.903 43.904C190.268 42.8374 191.506 41.6 192.615 40.192C193.724 38.784 194.599 37.248 195.239 35.584L196.199 36.416C195.516 38.336 194.471 40.1067 193.063 41.728C191.655 43.3067 190.14 44.672 188.519 45.824C186.898 46.976 185.404 47.872 184.039 48.512C182.887 51.3707 181.628 53.9734 180.263 56.32C178.94 58.6667 177.554 60.544 176.103 61.952C174.652 63.36 173.095 64.064 171.431 64.064ZM171.239 61.696C172.05 61.696 173.159 60.8854 174.567 59.264C176.018 57.6854 177.575 54.9547 179.239 51.072C177.575 51.8827 176.018 52.736 174.567 53.632C173.159 54.528 172.007 55.4667 171.111 56.448C170.215 57.4294 169.767 58.496 169.767 59.648C169.767 60.288 169.895 60.7787 170.151 61.12C170.45 61.504 170.812 61.696 171.239 61.696Z" fill="white"/>
<path d="M134.909 51.712C133.842 51.1147 133.181 50.4747 132.925 49.792C132.626 49.152 132.477 48.6187 132.477 48.192C132.477 46.9973 132.903 45.3973 133.757 43.392C134.61 41.3867 135.762 39.0827 137.213 36.48C138.663 33.8773 140.285 31.1893 142.077 28.416C140.583 28.288 139.261 28.2027 138.109 28.16C136.999 28.1173 135.847 28.096 134.653 28.096H132.861C133.373 26.7733 134.226 25.856 135.421 25.344C136.658 24.7893 138.109 24.512 139.773 24.512C140.498 24.512 141.245 24.5547 142.013 24.64C142.781 24.7253 143.57 24.832 144.381 24.96C146.557 21.7173 148.754 18.624 150.973 15.68C153.191 12.6933 155.261 10.0267 157.181 7.68C159.143 5.33333 160.807 3.52 162.173 2.24C163.666 0.746666 164.839 0 165.693 0C166.205 0 166.781 0.213333 167.421 0.639999C168.061 1.024 168.722 1.55733 169.405 2.24C168.978 2.58133 168.423 3.47733 167.741 4.928C167.101 6.37867 166.397 8.21333 165.629 10.432C164.903 12.608 164.178 14.9973 163.453 17.6C162.727 20.2027 162.045 22.8693 161.405 25.6C160.807 28.3307 160.317 30.9333 159.933 33.408C159.591 35.84 159.421 37.9733 159.421 39.808C159.421 41.472 159.591 42.752 159.933 43.648C160.317 44.5013 160.914 44.928 161.725 44.928C162.791 44.928 164.029 44.1813 165.437 42.688C166.887 41.152 168.466 38.7413 170.173 35.456L170.941 36.288C169.661 39.7013 167.997 42.5173 165.949 44.736C163.943 46.9547 161.831 48.064 159.613 48.064C157.778 48.064 156.455 47.2533 155.645 45.632C154.834 43.968 154.429 41.7707 154.429 39.04C154.429 37.8027 154.514 36.4373 154.685 34.944C154.855 33.4507 155.111 31.808 155.453 30.016C153.575 29.7173 151.869 29.4827 150.333 29.312C148.797 29.0987 147.367 28.9067 146.045 28.736C144.039 32.448 142.077 36.2667 140.157 40.192C138.279 44.0747 136.53 47.9147 134.909 51.712ZM155.965 27.456C156.562 24.768 157.266 22.0373 158.077 19.264C158.887 16.448 159.741 13.7813 160.637 11.264C161.575 8.74667 162.471 6.528 163.325 4.608C162.002 5.46133 160.509 6.912 158.845 8.96C157.181 10.9653 155.41 13.3973 153.533 16.256C151.698 19.072 149.799 22.1867 147.837 25.6C149.245 25.856 150.631 26.1547 151.997 26.496C153.405 26.8373 154.727 27.1573 155.965 27.456Z" fill="white"/>
<path d="M119.386 47.808C117.893 47.808 116.698 47.4027 115.802 46.592C114.949 45.824 114.522 44.8 114.522 43.52C114.522 42.24 114.821 40.9174 115.418 39.552C116.015 38.144 116.591 36.7574 117.146 35.392C117.743 34.0267 118.042 32.8107 118.042 31.744C118.042 30.5067 117.679 29.568 116.954 28.928C116.229 28.2453 115.439 27.648 114.586 27.136C113.647 29.568 112.623 31.9147 111.514 34.176C110.405 36.3947 109.509 38.1014 108.826 39.296L108.122 37.952C108.719 36.8427 109.487 35.2427 110.426 33.152C111.407 31.0187 112.367 28.6293 113.306 25.984C112.879 25.5574 112.666 25.024 112.666 24.384C112.666 23.1467 113.007 22.1014 113.69 21.248C114.415 20.3947 114.991 19.968 115.418 19.968C115.93 19.968 116.229 20.2027 116.314 20.672C116.442 21.0987 116.506 21.4187 116.506 21.632C116.506 21.8454 116.399 22.2507 116.186 22.848C115.973 23.4454 115.845 23.8294 115.802 24C115.845 24.5547 116.186 25.088 116.826 25.6C117.509 26.0694 118.277 26.6027 119.13 27.2C120.026 27.7974 120.794 28.544 121.434 29.44C122.117 30.336 122.458 31.4667 122.458 32.832C122.458 34.0694 122.181 35.3494 121.626 36.672C121.114 37.9947 120.581 39.232 120.026 40.384C119.514 41.536 119.258 42.56 119.258 43.456C119.258 44.1387 119.429 44.608 119.77 44.864C120.154 45.0774 120.581 45.184 121.05 45.184C122.074 45.184 123.119 44.8854 124.186 44.288C125.295 43.648 126.362 42.8374 127.386 41.856C128.453 40.8747 129.391 39.8507 130.202 38.784C131.013 37.6747 131.61 36.6507 131.994 35.712L133.082 36.544C132.271 38.336 131.141 40.1067 129.69 41.856C128.239 43.6054 126.618 45.0347 124.826 46.144C123.077 47.2534 121.263 47.808 119.386 47.808Z" fill="white"/>
<path d="M93.6621 48.96C91.0168 48.96 89.0115 48.2347 87.6461 46.784C86.2808 45.3333 85.5981 43.5413 85.5981 41.408C85.5981 39.5307 86.0675 37.5253 87.0061 35.392C87.9875 33.2587 89.2675 31.2533 90.8461 29.376C92.4675 27.4987 94.2381 25.984 96.1581 24.832C98.1208 23.68 100.062 23.104 101.982 23.104C103.006 23.104 103.945 23.3813 104.798 23.936C105.694 24.448 106.142 25.5147 106.142 27.136C106.142 28.7573 105.673 30.272 104.734 31.68C103.795 33.088 102.537 34.3467 100.958 35.456C99.3795 36.5653 97.6515 37.4827 95.7741 38.208C93.9395 38.8907 92.0835 39.3387 90.2061 39.552C90.1208 39.8933 90.0568 40.2347 90.0141 40.576C90.0141 40.8747 90.0141 41.1947 90.0141 41.536C90.0141 42.048 90.0568 42.6027 90.1421 43.2C90.2701 43.7973 90.5048 44.3733 90.8461 44.928C91.2301 45.4827 91.7421 45.9307 92.3821 46.272C93.0648 46.6133 93.9395 46.784 95.0061 46.784C96.8408 46.784 98.6541 46.272 100.446 45.248C102.238 44.224 103.902 42.88 105.438 41.216C107.017 39.5093 108.339 37.632 109.406 35.584L110.366 36.288C109.214 38.848 107.742 41.088 105.95 43.008C104.158 44.8853 102.195 46.336 100.062 47.36C97.9715 48.4267 95.8381 48.96 93.6621 48.96ZM90.6541 37.952C91.8061 37.6533 93.0861 37.1413 94.4941 36.416C95.9021 35.6907 97.2675 34.8373 98.5901 33.856C99.9128 32.832 101.001 31.7227 101.854 30.528C102.707 29.2907 103.134 28.0107 103.134 26.688C103.134 26.2187 103.049 25.8773 102.878 25.664C102.707 25.4507 102.366 25.344 101.854 25.344C100.873 25.344 99.8061 25.728 98.6541 26.496C97.5448 27.2213 96.4568 28.2027 95.3901 29.44C94.3661 30.6773 93.4275 32.0427 92.5741 33.536C91.7208 34.9867 91.0808 36.4587 90.6541 37.952Z" fill="white"/>
<path d="M64.9856 48.64C63.6203 48.64 62.6816 48.0213 62.1696 46.784C61.7003 45.5467 61.4443 44.0747 61.4016 42.368C61.4443 41.6 61.4869 40.7467 61.5296 39.808C61.6149 38.8267 61.7003 37.9093 61.7856 37.056C60.8469 38.848 59.8443 40.5973 58.7776 42.304C57.7109 43.968 56.5803 45.3333 55.3856 46.4C54.1909 47.5093 52.9323 48.064 51.6096 48.064C50.1589 48.064 48.9856 47.424 48.0896 46.144C47.1936 44.864 46.7456 43.328 46.7456 41.536C46.7456 40.2987 46.9376 38.8693 47.3216 37.248C47.7483 35.6267 48.2603 34.048 48.8576 32.512C49.4549 30.9333 50.0736 29.632 50.7136 28.608C51.3536 27.584 51.9296 27.072 52.4416 27.072C52.6549 27.072 53.1029 27.2 53.7856 27.456C54.5109 27.712 54.9163 28.0747 55.0016 28.544C54.5323 29.2267 53.9563 30.3147 53.2736 31.808C52.5909 33.2587 51.9936 34.8373 51.4816 36.544C50.9696 38.208 50.7136 39.7227 50.7136 41.088C50.7136 41.4293 50.7563 41.9413 50.8416 42.624C50.9269 43.264 51.1189 43.8613 51.4176 44.416C51.7589 44.9707 52.2496 45.248 52.8896 45.248C53.8709 45.248 54.8949 44.6507 55.9616 43.456C57.0709 42.2187 58.1589 40.6827 59.2256 38.848C60.3349 37.0133 61.3803 35.1573 62.3616 33.28C62.7029 31.488 62.9803 30.1867 63.1936 29.376C63.4496 28.5653 63.7056 28.0533 63.9616 27.84C64.2603 27.584 64.6016 27.456 64.9856 27.456C65.6256 27.456 66.1163 27.6053 66.4576 27.904C66.8416 28.16 67.0336 28.544 67.0336 29.056C67.0336 29.0987 67.0123 29.2267 66.9696 29.44C66.9269 29.6107 66.8843 29.76 66.8416 29.888C66.5856 30.8693 66.3296 32.0853 66.0736 33.536C65.8176 34.9867 65.6043 36.5227 65.4336 38.144C65.2629 39.7227 65.1776 41.2373 65.1776 42.688C65.1776 43.6693 65.2629 44.4373 65.4336 44.992C65.6469 45.5467 66.0096 45.824 66.5216 45.824C67.1616 45.824 67.8869 45.44 68.6976 44.672C69.5509 43.904 70.4256 42.9013 71.3216 41.664C72.2176 40.384 73.0923 38.9973 73.9456 37.504C74.7989 36.0107 75.5669 34.5173 76.2496 33.024C76.2496 30.8053 76.3989 29.12 76.6976 27.968C77.0389 26.7733 77.4656 25.9627 77.9776 25.536C78.4896 25.1093 79.0229 24.896 79.5776 24.896C80.4736 24.896 81.1136 25.216 81.4976 25.856C81.8816 26.4533 82.0736 26.9867 82.0736 27.456C82.0736 27.7973 81.9883 28.1387 81.8176 28.48C81.6469 28.7787 81.4763 29.12 81.3056 29.504C80.9643 30.144 80.6229 30.9547 80.2816 31.936C79.9829 32.8747 79.8336 34.1547 79.8336 35.776C79.8336 36.4587 79.8976 37.184 80.0256 37.952C80.1963 38.72 80.4736 39.36 80.8576 39.872C81.2843 40.3413 81.9243 40.576 82.7776 40.576C83.6309 40.576 84.4629 40.2347 85.2736 39.552C86.1269 38.8693 86.9803 37.632 87.8336 35.84L88.7936 36.544C87.8549 38.72 86.8096 40.192 85.6576 40.96C84.5056 41.728 83.3963 42.112 82.3296 42.112C80.9643 42.112 79.8123 41.6427 78.8736 40.704C77.9349 39.7653 77.2309 38.4427 76.7616 36.736C75.6949 38.656 74.5003 40.5333 73.1776 42.368C71.8976 44.2027 70.5536 45.696 69.1456 46.848C67.7376 48.0427 66.3509 48.64 64.9856 48.64Z" fill="white"/>
<path d="M27.5975 48.1921C25.7202 48.1921 24.3975 47.5948 23.6295 46.4001C22.9042 45.2481 22.5415 43.8828 22.5415 42.3041C22.5415 40.9814 22.7548 39.6161 23.1815 38.2081C23.6082 36.7574 24.1842 35.4134 24.9095 34.1761C25.6348 32.9388 26.4455 31.9574 27.3415 31.2321C28.2375 30.4641 29.1335 30.0801 30.0295 30.0801C30.2855 30.0801 30.5415 30.1228 30.7975 30.2081C31.0962 30.2508 31.3522 30.3361 31.5655 30.4641C31.1388 30.9334 30.6482 31.6374 30.0935 32.5761C29.5815 33.4721 29.0908 34.4961 28.6215 35.6481C28.1522 36.7574 27.7682 37.8881 27.4695 39.0401C27.1708 40.1494 27.0215 41.1094 27.0215 41.9201C27.0215 43.0721 27.2135 43.9468 27.5975 44.5441C28.0242 45.0988 28.6002 45.3761 29.3255 45.3761C30.1788 45.3761 31.2028 44.9068 32.3975 43.9681C33.5922 42.9868 34.7655 41.8134 35.9175 40.4481C34.6802 39.3814 33.7415 38.0801 33.1015 36.5441C32.4615 34.9654 32.1415 33.2588 32.1415 31.4241C32.1415 30.1868 32.3762 28.9708 32.8455 27.7761C33.3148 26.5814 34.0188 25.6001 34.9575 24.8321C35.9388 24.0214 37.1548 23.6161 38.6055 23.6161C40.3975 23.6161 41.6135 24.1068 42.2535 25.0881C42.8935 26.0268 43.2135 27.2001 43.2135 28.6081C43.2135 30.2721 42.8082 32.1068 41.9975 34.1121C41.1868 36.1174 40.1628 38.0374 38.9255 39.8721C39.6082 40.2134 40.3548 40.3841 41.1655 40.3841C41.8482 40.3841 42.6162 40.2561 43.4695 40.0001C44.3228 39.7014 45.1762 39.2108 46.0295 38.5281C46.8828 37.8454 47.5655 36.9068 48.0775 35.7121L48.9735 36.4161C48.0775 38.5068 46.8402 40.0001 45.2615 40.8961C43.7255 41.7494 42.2322 42.1761 40.7815 42.1761C40.2268 42.1761 39.6935 42.1334 39.1815 42.0481C38.6695 41.9201 38.1788 41.7708 37.7095 41.6001C36.2588 43.4348 34.6375 44.9921 32.8455 46.2721C31.0535 47.5521 29.3042 48.1921 27.5975 48.1921ZM37.2615 38.6561C38.2855 37.0774 39.1602 35.4348 39.8855 33.7281C40.6108 32.0214 40.9735 30.4001 40.9735 28.8641C40.9735 27.7121 40.8028 26.8801 40.4615 26.3681C40.1202 25.8134 39.6508 25.5361 39.0535 25.5361C38.2428 25.5361 37.3895 26.1548 36.4935 27.3921C35.5975 28.5868 35.1495 30.1014 35.1495 31.9361C35.1495 33.0454 35.3202 34.2401 35.6615 35.5201C36.0455 36.8001 36.5788 37.8454 37.2615 38.6561Z" fill="white"/>
<path d="M5.41616 51.7121C4.26416 51.7121 3.17616 51.3921 2.15216 50.7521C1.17083 50.1548 216.319 51.7334 216.319 50.7521C216.319 50.2401 0.786825 47.2748 1.00016 46.5921C1.21349 45.9521 1.40549 45.3548 1.57616 44.8001C2.94149 40.6614 4.20016 36.8001 5.35216 33.2161C6.54683 29.6321 7.74149 26.1548 8.93616 22.7841C10.1308 19.4134 11.3895 16.0428 12.7122 12.6721C14.0348 9.30142 15.5282 5.78142 17.1922 2.11209C15.5708 2.45342 14.1415 2.90142 12.9042 3.45609C11.6668 4.01075 10.6642 4.50142 9.89616 4.92809C9.17082 5.35475 8.65883 5.56809 8.36016 5.56809C8.18949 5.56809 7.93349 5.46142 7.59216 5.24809C7.25083 5.03475 6.93082 4.77875 6.63216 4.48009C6.37616 4.13875 6.24816 3.84009 6.24816 3.58409C7.40016 3.11475 8.74416 2.60275 10.2802 2.04809C11.8162 1.49342 13.4802 1.02409 15.2722 0.640087C17.0642 0.256087 18.8775 0.0640869 20.7122 0.0640869C22.6322 0.0640869 24.5735 0.320087 26.5362 0.832088C28.5415 1.34409 30.3762 2.13342 32.0402 3.20009C33.7042 4.22409 35.0482 5.52542 36.0722 7.10409C37.0962 8.64009 37.6082 10.4321 37.6082 12.4801C37.6082 14.6988 37.0962 16.6188 36.0722 18.2401C35.0908 19.8614 33.7682 21.2268 32.1042 22.3361C30.4828 23.4028 28.7122 24.2774 26.7922 24.9601C24.9148 25.6001 23.0375 26.1121 21.1602 26.4961C19.2828 26.8374 17.5975 27.0721 16.1042 27.2001C14.6108 27.2854 13.5228 27.3281 12.8402 27.3281H12.2642C11.0268 31.6801 9.81083 35.9894 8.61616 40.2561C7.46416 44.4801 6.39749 48.2988 5.41616 51.7121ZM12.6482 25.9841C14.9948 25.8561 17.3628 25.4721 19.7522 24.8321C22.1842 24.1921 24.3815 23.2748 26.3442 22.0801C28.3495 20.8854 29.9495 19.4134 31.1442 17.6641C32.3815 15.8721 33.0002 13.7814 33.0002 11.3921C33.0002 9.17342 32.4455 7.36009 31.3362 5.95209C30.2268 4.54409 28.7762 3.49875 26.9842 2.81609C25.2348 2.09075 23.3575 1.72809 21.3522 1.72809C19.8162 4.80009 18.3015 8.46942 16.8082 12.7361C15.3575 16.9601 13.9708 21.3761 12.6482 25.9841Z" fill="white"/>
<path d="M9.17661 66.337C8.22761 66.337 7.65561 65.921 7.56461 65.063C7.03161 65.96 6.30361 66.337 5.56261 66.337C4.60061 66.337 3.89861 65.726 3.89861 64.309C3.89861 62.125 5.60161 60.032 7.29161 60.032C7.77261 60.032 8.12361 60.279 8.37061 60.747L9.46261 60.071L9.63161 60.188L8.87761 64.413C8.68261 65.518 8.87761 65.869 9.50161 65.869C10.5546 65.869 11.8936 64.517 11.8936 62.164C11.8936 59.59 10.0606 57.926 7.57761 57.926C4.19761 57.926 1.74061 60.721 1.74061 64.075C1.74061 67.065 3.74261 68.768 6.32961 68.768C7.47361 68.768 8.44861 68.508 9.28061 68.066L9.47561 68.404C8.55261 68.924 7.48661 69.223 6.22561 69.223C3.31361 69.223 1.10361 67.494 1.10361 64.153C1.10361 60.396 3.89861 57.445 7.68161 57.445C10.4896 57.445 12.4136 59.33 12.4136 62.229C12.4136 64.92 10.6586 66.337 9.17661 66.337ZM7.49961 64.725L8.13661 61.111C7.95461 60.799 7.69461 60.669 7.39561 60.669C6.30361 60.669 5.27661 62.411 5.27661 64.088C5.27661 65.05 5.69261 65.518 6.26461 65.518C6.62861 65.518 6.97961 65.349 7.49961 64.725ZM16.8162 58.914L15.3992 63.425H18.2722L16.8162 58.914ZM17.9082 67V66.571L19.2342 66.428L18.4022 63.867H15.2562L14.4502 66.428L15.6722 66.571V67H12.7212V66.571L13.8262 66.428L16.8552 57.315H17.9992L21.1062 66.467L22.1202 66.571V67H17.9082ZM22.7603 57.796V57.367H27.0893C29.4553 57.367 30.3913 58.316 30.3913 59.642C30.3913 60.643 29.7283 61.54 27.7653 61.878C30.0143 62.099 30.9373 63.022 30.9373 64.348C30.9373 65.635 29.9883 67 26.7643 67H22.7603V66.571L23.9953 66.454C24.0083 65.115 24.0083 63.75 24.0083 62.372V61.826C24.0083 60.526 24.0083 59.226 23.9953 57.913L22.7603 57.796ZM25.8283 62.19C25.8283 63.763 25.8283 65.167 25.8673 66.532H26.6863C28.1683 66.532 29.0523 65.778 29.0523 64.374C29.0523 62.892 28.2593 62.19 26.5563 62.19H25.8283ZM25.8673 57.848C25.8283 59.122 25.8283 60.409 25.8283 61.748H26.4393C27.8823 61.748 28.6103 60.994 28.6103 59.681C28.6103 58.524 28.0383 57.848 26.5953 57.848H25.8673ZM36.9963 67.247C34.1233 67.247 31.9653 65.557 31.9653 62.255C31.9653 58.914 34.1883 57.133 36.9963 57.133C38.1663 57.133 38.9593 57.38 39.7913 57.861L39.7653 60.136H39.0633L38.4653 57.809C38.1013 57.679 37.7243 57.614 37.2953 57.614C35.3583 57.614 33.9023 59.109 33.9023 62.19C33.9023 65.297 35.3583 66.753 37.3083 66.753C37.7633 66.753 38.1663 66.688 38.5693 66.519L39.1543 64.244H39.8693L39.8953 66.493C39.0763 66.974 38.1533 67.247 36.9963 67.247ZM52.5202 62.736V62.307H56.6282V62.736L55.7702 62.84C55.7442 63.75 55.7312 64.686 55.7312 65.739V66.389C54.7302 66.987 53.8202 67.247 52.6242 67.247C49.6212 67.247 47.5932 65.297 47.5932 62.164C47.5932 59.096 49.6602 57.133 52.6892 57.133C53.8332 57.133 54.7042 57.393 55.5102 57.848L55.4842 60.123H54.7562L54.1842 57.861C53.7942 57.692 53.4042 57.614 52.9232 57.614C50.9862 57.614 49.5302 59.161 49.5302 62.19C49.5302 65.037 50.9342 66.766 52.8192 66.766C53.2352 66.766 53.6122 66.714 53.9892 66.61V65.7C53.9892 64.751 53.9762 63.841 53.9502 62.892L52.5202 62.736ZM58.1861 67H57.2631V66.61L58.2121 66.519C58.2251 65.765 58.2381 64.66 58.2381 63.945V62.97C58.2381 62.099 58.2251 61.605 58.1861 60.968L57.1721 60.877V60.565L59.7201 59.85L59.8891 59.954L59.9931 61.761C60.4091 60.526 61.2801 59.824 62.0861 59.824C62.6581 59.824 63.1391 60.058 63.2691 60.695C63.2431 61.254 62.9831 61.644 62.3981 61.644C61.9691 61.644 61.6831 61.384 61.3581 60.968L61.2541 60.851C60.6821 61.241 60.2921 61.826 59.9931 62.801V63.945L60.0191 66.493L61.2281 66.61V67H58.1861ZM67.1226 67.208C65.0556 67.208 63.5996 65.804 63.5996 63.49C63.5996 61.176 65.2116 59.824 67.1226 59.824C69.0466 59.824 70.6586 61.163 70.6586 63.49C70.6586 65.83 69.1766 67.208 67.1226 67.208ZM67.1226 66.779C68.1756 66.779 68.7866 65.7 68.7866 63.516C68.7866 61.319 68.1756 60.266 67.1226 60.266C66.0696 60.266 65.4586 61.319 65.4586 63.516C65.4586 65.7 66.0696 66.779 67.1226 66.779ZM76.9651 67.156L76.9001 65.882C76.2761 66.675 75.4701 67.208 74.4691 67.208C73.1821 67.208 72.4151 66.519 72.4281 64.556L72.4671 60.747L71.5051 60.578V60.24L74.1051 59.915L74.2611 60.045L74.1961 61.943V64.686C74.1961 65.843 74.6121 66.22 75.3271 66.22C75.8991 66.22 76.4321 65.921 76.8871 65.44L76.9391 60.734L76.0031 60.591V60.279L78.5641 59.915L78.7071 60.045L78.6551 61.943V66.545L79.5391 66.636V67.013L76.9651 67.156ZM84.9597 67.208C84.2447 67.208 83.5817 66.935 83.0097 66.285V67.169L83.0357 69.886L84.1277 70.003V70.367H80.3057V70.003L81.2547 69.912L81.2807 67.182V62.983C81.2807 62.125 81.2677 61.605 81.2417 60.968L80.2147 60.877V60.565L82.7367 59.85L82.9057 59.967L83.0097 60.838C83.6207 60.136 84.4007 59.824 85.2327 59.824C86.8187 59.824 88.0407 61.163 88.0407 63.477C88.0407 65.791 86.6757 67.208 84.9597 67.208ZM83.0357 61.215V65.934C83.4387 66.285 83.8287 66.389 84.3357 66.389C85.3887 66.389 86.1557 65.648 86.1557 63.49C86.1557 61.423 85.4927 60.617 84.4137 60.617C83.9587 60.617 83.5427 60.721 83.0357 61.215Z" fill="white"/>
</svg>
