<svg width="101" height="41" viewBox="0 0 101 41" fill="none" xmlns="http://www.w3.org/2000/svg">
<g clip-path="url(#clip0_22_2)">
<path d="M5.59357 4.64674C5.85357 3.41274 7.08357 2.41174 8.33657 2.41174H15.1486L9.48357 29.2347H2.67157C1.41757 29.2347 0.611566 28.2347 0.872566 26.9997L5.59357 4.64674ZM28.3006 4.64674C28.5616 3.41274 29.7906 2.41174 31.0436 2.41174H37.8556L32.1906 29.2347H25.3786C24.1246 29.2347 23.3186 28.2347 23.5796 26.9997L28.3006 4.64674ZM73.7156 4.64674C73.9756 3.41274 75.2036 2.41174 76.4586 2.41174H83.2706L77.6056 29.2347H70.7926C69.5386 29.2347 68.7336 28.2347 68.9946 26.9997L73.7156 4.64674ZM40.1266 2.41174H46.9386C48.1926 2.41174 48.9986 3.41174 48.7376 4.64674L44.0166 26.9997C43.7566 28.2347 42.5276 29.2347 41.2736 29.2347H34.4616L40.1266 2.41174ZM85.5416 2.41174H92.3536C93.6076 2.41174 94.4136 3.41174 94.1526 4.64674L89.4306 26.9997C89.1706 28.2347 87.9426 29.2347 86.6886 29.2347H79.8756L85.5416 2.41174ZM51.0086 4.64674C51.2686 3.41274 52.4966 2.41174 53.7506 2.41174H60.5636L54.8976 29.2347H48.0856C46.8316 29.2347 46.0256 28.2347 46.2876 26.9997L51.0076 4.64674H51.0086ZM62.8336 2.41174H69.6466C70.9006 2.41174 71.7056 3.41174 71.4446 4.64674L64.3636 38.1767C64.1016 39.4107 62.8736 40.4117 61.6196 40.4117H54.8066L62.8336 2.41174ZM13.6426 20.2937H22.7256L21.3096 26.9997C21.0486 28.2347 19.8196 29.2347 18.5666 29.2347H11.7536L13.6416 20.2947L13.6426 20.2937ZM45.3436 31.4707H54.4256L52.5376 40.4117H45.7256C44.4706 40.4117 43.6656 39.4117 43.9266 38.1767L45.3436 31.4707ZM69.9976 33.5497L68.8476 38.9957C68.7976 39.2297 68.7196 39.2937 68.4816 39.2937H67.9586C67.7206 39.2937 67.6686 39.2297 67.7186 38.9957L68.8686 33.5497C68.9186 33.3167 68.9966 33.2517 69.2346 33.2517H69.7576C69.9956 33.2517 70.0476 33.3167 69.9976 33.5497ZM71.5096 37.2237H71.4026C71.2886 37.2237 71.2486 37.2557 71.2256 37.3687L70.8816 38.9957C70.8316 39.2297 70.7526 39.2937 70.5156 39.2937H69.9916C69.7546 39.2937 69.7026 39.2297 69.7516 38.9957L70.9016 33.5497C70.9516 33.3167 71.0316 33.2517 71.2686 33.2517H72.3486C73.5926 33.2517 74.0636 33.6947 73.8336 34.7817L73.6416 35.6927C73.4116 36.7807 72.7536 37.2237 71.5096 37.2237ZM71.8256 34.5247L71.5256 35.9507C71.5006 36.0637 71.5266 36.0957 71.6416 36.0957H71.8136C72.2136 36.0957 72.4286 35.9347 72.5156 35.5237L72.6356 34.9517C72.7226 34.5417 72.5766 34.3797 72.1756 34.3797H72.0036C71.8896 34.3797 71.8496 34.4117 71.8256 34.5247ZM75.5636 35.4027L76.4136 36.3377C76.8596 36.8207 76.9216 37.1107 76.8076 37.6507L76.7776 37.7957C76.5626 38.8107 76.0506 39.3747 74.8636 39.3747C73.6776 39.3747 73.3846 38.8997 73.6586 37.6017L73.6926 37.4417C73.7426 37.2077 73.8216 37.1427 74.0586 37.1427H74.6146C74.8526 37.1427 74.9046 37.2077 74.8546 37.4407L74.7796 37.7957C74.7116 38.1177 74.8156 38.2467 75.1016 38.2467C75.3886 38.2467 75.5446 38.1267 75.6066 37.8367L75.6386 37.6827C75.6866 37.4567 75.6606 37.3447 75.4146 37.0787L74.6146 36.2167C74.1666 35.7417 74.1096 35.4667 74.2236 34.9267L74.2606 34.7507C74.4756 33.7357 74.9876 33.1707 76.1736 33.1707C77.3606 33.1707 77.6536 33.6467 77.3796 34.9437L77.3456 35.1047C77.2956 35.3387 77.2166 35.4027 76.9796 35.4027H76.4226C76.1856 35.4027 76.1336 35.3387 76.1826 35.1047L76.2576 34.7507C76.3256 34.4277 76.2226 34.2997 75.9356 34.2997C75.6496 34.2997 75.4926 34.4197 75.4316 34.7097L75.4026 34.8467C75.3526 35.0807 75.3786 35.1937 75.5636 35.4027ZM80.3556 33.5497C80.4056 33.3167 80.4836 33.2517 80.7216 33.2517H81.2446C81.4826 33.2517 81.5346 33.3167 81.4846 33.5497L80.6286 37.6027C80.3546 38.8997 79.8616 39.3747 78.6746 39.3747C77.4886 39.3747 77.1956 38.8997 77.4696 37.6017L78.3256 33.5497C78.3756 33.3167 78.4546 33.2517 78.6916 33.2517H79.2156C79.4526 33.2517 79.5046 33.3167 79.4556 33.5497L78.5586 37.7957C78.4906 38.1177 78.6026 38.2467 78.9136 38.2467C79.2156 38.2467 79.3906 38.1177 79.4586 37.7957L80.3556 33.5497ZM83.7616 36.8287C83.7646 36.8937 83.7856 36.9087 83.8266 36.9087C83.8666 36.9087 83.8956 36.8937 83.9256 36.8287L85.3396 33.4617C85.4086 33.2917 85.4906 33.2517 85.6956 33.2517H86.4896C86.7266 33.2517 86.7786 33.3167 86.7296 33.5497L85.5796 38.9957C85.5296 39.2297 85.4496 39.2937 85.2126 39.2937H84.8366C84.5996 39.2937 84.5466 39.2297 84.5966 38.9957L85.1486 36.3857C85.1636 36.3137 85.1506 36.2967 85.1016 36.2967C85.0686 36.2967 85.0316 36.3137 85.0116 36.3697L83.8696 39.0287C83.7876 39.2217 83.6826 39.2937 83.4456 39.2937H83.2236C82.9776 39.2937 82.9036 39.2217 82.9036 39.0287L82.8756 36.3687C82.8706 36.3127 82.8576 36.2967 82.8166 36.2967C82.7676 36.2967 82.7476 36.3137 82.7326 36.3857L82.1816 38.9957C82.1316 39.2297 82.0536 39.2937 81.8156 39.2937H81.4396C81.2016 39.2937 81.1496 39.2297 81.1996 38.9957L82.3496 33.5497C82.3996 33.3167 82.4786 33.2517 82.7156 33.2517H83.3956C83.6816 33.2517 83.7736 33.3167 83.7716 33.5987L83.7606 36.8287H83.7616ZM100.824 2.41174C100.824 3.51674 99.9336 4.41174 98.8366 4.41174C98.5748 4.41096 98.3157 4.35859 98.0741 4.25765C97.8325 4.1567 97.6132 4.00914 97.4287 3.82341C97.2442 3.63768 97.0981 3.41742 96.9987 3.1752C96.8993 2.93298 96.8486 2.67355 96.8496 2.41174C96.8496 1.30674 97.7396 0.411743 98.8366 0.411743C99.9336 0.411743 100.824 1.30674 100.824 2.41174Z" fill="#9C398C"/>
</g>
<defs>
<clipPath id="clip0_22_2">
<rect width="100" height="40" fill="white" transform="translate(0.823486 0.411743)"/>
</clipPath>
</defs>
</svg>
