<svg width="97" height="50" viewBox="0 0 97 50" fill="none" xmlns="http://www.w3.org/2000/svg">
<path d="M24.5786 24.5765L24.7772 24.5345H41.2954L47.5023 30.7414H30.7437L24.5786 24.5765Z" fill="#FF9500"/>
<path d="M19.2609 24.5344L2.5022 24.5345L8.70908 30.7414H19.2607L19.2609 24.5344Z" fill="#FF9500"/>
<path d="M53.2703 6.70471H55.8444V14.7032H60.2655V16.8701H53.2703V6.70471Z" fill="#FF9500"/>
<path d="M64.9387 17.0883C64.0758 17.0883 63.3199 16.9332 62.6698 16.6229C62.0203 16.303 61.5162 15.8668 61.1574 15.3141C60.8083 14.7518 60.6338 14.1071 60.6338 13.3799C60.6338 12.6528 60.8083 12.0129 61.1574 11.4603C61.5162 10.898 62.0203 10.4617 62.6698 10.1515C63.3199 9.83144 64.0758 9.67151 64.9387 9.67151C65.8016 9.67151 66.5581 9.83144 67.2076 10.1515C67.857 10.4617 68.3563 10.898 68.7053 11.4603C69.0641 12.0129 69.2435 12.6528 69.2435 13.3799C69.2435 14.1071 69.0641 14.7518 68.7053 15.3141C68.3563 15.8668 67.857 16.303 67.2076 16.6229C66.5581 16.9332 65.8016 17.0883 64.9387 17.0883ZM64.9387 15.096C65.4525 15.096 65.86 14.9457 66.1604 14.6452C66.4705 14.3349 66.6256 13.9132 66.6256 13.3799C66.6256 12.8467 66.4705 12.4298 66.1604 12.1292C65.86 11.819 65.4525 11.6639 64.9387 11.6639C64.4248 11.6639 64.0132 11.819 63.7024 12.1292C63.402 12.4298 63.2518 12.8467 63.2518 13.3799C63.2518 13.9132 63.402 14.3349 63.7024 14.6452C64.0132 14.9457 64.4248 15.096 64.9387 15.096Z" fill="#FF9500"/>
<path d="M74.0511 20.215C73.5859 20.215 73.1158 20.1714 72.6402 20.0841C72.175 19.9969 71.7731 19.8805 71.4338 19.7351V17.9609C72.1994 18.2905 73.072 18.4554 74.0511 18.4554C74.7589 18.4554 75.2679 18.3099 75.578 18.019C75.8979 17.7282 76.0578 17.3017 76.0578 16.7393V16.3175C75.7769 16.5599 75.4279 16.749 75.0113 16.8847C74.6039 17.0205 74.1672 17.0883 73.702 17.0883C72.9656 17.0883 72.3155 16.9332 71.7537 16.6229C71.1911 16.3128 70.7503 15.8764 70.4297 15.3141C70.1196 14.7518 69.9646 14.1071 69.9646 13.3799C69.9646 12.6431 70.1196 11.9935 70.4297 11.4312C70.7406 10.8689 71.1765 10.4375 71.7391 10.1369C72.3009 9.82664 72.9462 9.67151 73.6728 9.67151C74.672 9.67151 75.496 9.97691 76.1454 10.5877V9.88964H78.6174V16.3903C78.6174 17.6022 78.2447 18.5426 77.4979 19.2116C76.7608 19.8805 75.6121 20.215 74.0511 20.215ZM74.3417 15.1105C74.7395 15.1105 75.0934 15.0087 75.4035 14.8051C75.7136 14.6015 75.932 14.3301 76.0578 13.9907V12.7692C75.9222 12.4298 75.699 12.1632 75.3889 11.9693C75.0788 11.7657 74.7297 11.6639 74.3417 11.6639C73.8188 11.6639 73.3968 11.819 73.0769 12.1292C72.757 12.4298 72.5971 12.8419 72.5971 13.3654C72.5971 13.8986 72.757 14.3252 73.0769 14.6452C73.3968 14.9554 73.8188 15.1105 74.3417 15.1105Z" fill="#FF9500"/>
<path d="M83.5716 17.0883C82.7087 17.0883 81.9522 16.9332 81.3027 16.6229C80.6533 16.303 80.1492 15.8668 79.7904 15.3141C79.4413 14.7518 79.2668 14.1071 79.2668 13.3799C79.2668 12.6528 79.4413 12.0129 79.7904 11.4603C80.1492 10.898 80.6533 10.4617 81.3027 10.1515C81.9522 9.83144 82.7087 9.67151 83.5716 9.67151C84.4345 9.67151 85.1904 9.83144 85.8405 10.1515C86.49 10.4617 86.9892 10.898 87.3383 11.4603C87.6971 12.0129 87.8765 12.6528 87.8765 13.3799C87.8765 14.1071 87.6971 14.7518 87.3383 15.3141C86.9892 15.8668 86.49 16.303 85.8405 16.6229C85.1904 16.9332 84.4345 17.0883 83.5716 17.0883ZM83.5716 15.096C84.0855 15.096 84.4924 14.9457 84.7934 14.6452C85.1036 14.3349 85.2585 13.9132 85.2585 13.3799C85.2585 12.8467 85.1036 12.4298 84.7934 12.1292C84.4924 11.819 84.0855 11.6639 83.5716 11.6639C83.0578 11.6639 82.6455 11.819 82.3354 12.1292C82.035 12.4298 81.8848 12.8467 81.8848 13.3799C81.8848 13.9132 82.035 14.3349 82.3354 14.6452C82.6455 14.9457 83.0578 15.096 83.5716 15.096Z" fill="#FF9500"/>
<path d="M53.2703 20.6115H55.8444V30.7768H53.2703V20.6115Z" fill="#FF9500"/>
<path d="M57.1475 23.7963H59.6195V24.4943C60.269 23.8836 61.0937 23.5782 62.0922 23.5782C62.8188 23.5782 63.4641 23.7333 64.0259 24.0436C64.5884 24.3441 65.0244 24.7755 65.3352 25.3378C65.6454 25.8904 65.8004 26.5352 65.8004 27.272C65.8004 27.9991 65.6454 28.6487 65.3352 29.2207C65.0244 29.783 64.5884 30.2194 64.0259 30.5295C63.4738 30.8398 62.8285 30.9949 62.0922 30.9949C61.6263 30.9949 61.1806 30.9222 60.7543 30.7768C60.3371 30.6411 59.9881 30.452 59.7072 30.2096V33.9617H57.1475V23.7963ZM61.4233 29.0026C61.9468 29.0026 62.3682 28.8475 62.6881 28.5372C63.0079 28.227 63.1679 27.8052 63.1679 27.272C63.1679 26.7388 63.0079 26.3219 62.6881 26.0213C62.3682 25.7111 61.9468 25.556 61.4233 25.556C61.0353 25.556 60.6862 25.6578 60.3761 25.8614C60.0659 26.0552 59.8427 26.3219 59.7072 26.6612V27.8973C59.8427 28.2367 60.0659 28.5081 60.3761 28.7117C60.6862 28.9057 61.0353 29.0026 61.4233 29.0026Z" fill="#FF9500"/>
<path d="M69.6162 30.9949C69.0536 30.9949 68.4668 30.9367 67.8563 30.8204C67.2458 30.7138 66.7604 30.5587 66.4023 30.3551V28.4791C66.7993 28.7117 67.2743 28.9057 67.8271 29.0608C68.3896 29.2062 68.9034 29.2789 69.3686 29.2789C69.708 29.2789 69.9555 29.2546 70.1106 29.2062C70.2656 29.1577 70.3428 29.0608 70.3428 28.9153C70.3428 28.799 70.29 28.7069 70.1829 28.6391C70.0862 28.5615 69.902 28.4839 69.6308 28.4063C69.3686 28.3191 69.0634 28.227 68.7143 28.13C68.1226 27.9555 67.6574 27.7761 67.3181 27.5919C66.9787 27.4077 66.727 27.1751 66.5622 26.8939C66.3974 26.6128 66.3147 26.2588 66.3147 25.8322C66.3147 25.0761 66.6102 24.5137 67.2019 24.1454C67.8027 23.7672 68.6225 23.5782 69.6593 23.5782C70.1634 23.5782 70.6919 23.6315 71.2447 23.7381C71.8072 23.8448 72.2286 23.9854 72.5102 24.1599V26.0068C72.2188 25.8129 71.8315 25.6529 71.3469 25.5269C70.8713 25.4009 70.4255 25.3378 70.0083 25.3378C69.6788 25.3378 69.4222 25.3717 69.2379 25.4396C69.0536 25.4978 68.9619 25.6045 68.9619 25.7596C68.9619 25.905 69.0536 26.0165 69.2379 26.094C69.4222 26.1716 69.7518 26.2686 70.2267 26.3849C70.5368 26.4624 70.6682 26.4964 70.6195 26.4867C71.2398 26.6515 71.7196 26.8357 72.0589 27.0393C72.3982 27.243 72.636 27.4853 72.7716 27.7665C72.917 28.0379 72.99 28.3869 72.99 28.8135C72.99 29.4825 72.6993 30.0158 72.1173 30.4132C71.545 30.801 70.7113 30.9949 69.6162 30.9949Z" fill="#FF9500"/>
<path d="M76.8118 30.995C75.8522 30.995 75.1298 30.7284 74.6451 30.1952C74.1702 29.6619 73.9324 28.9591 73.9324 28.0865V23.7964H76.492V27.7956C76.492 28.6003 76.8556 29.0027 77.5823 29.0027C77.9125 29.0027 78.2129 28.9251 78.4841 28.77C78.756 28.6149 78.9785 28.387 79.153 28.0865V23.7964H81.7126V30.7769H79.2406V30.0206C78.9402 30.3406 78.5766 30.583 78.1496 30.7478C77.7234 30.9126 77.277 30.995 76.8118 30.995Z" fill="#FF9500"/>
<path d="M83.0232 23.7963H85.3936V24.5525C85.6842 24.2423 86.0187 24.0048 86.397 23.8399C86.7752 23.6654 87.1778 23.5782 87.6041 23.5782C88.1276 23.5782 88.5449 23.6557 88.855 23.8108C89.1748 23.966 89.4314 24.1986 89.6254 24.5089C89.9161 24.218 90.27 23.9902 90.6872 23.8254C91.1037 23.6606 91.5258 23.5782 91.952 23.5782C92.8734 23.5782 93.5277 23.8157 93.9157 24.2907C94.3037 24.7561 94.4977 25.4299 94.4977 26.3122V30.7768H92.0542V26.6758C92.0542 26.288 91.9812 26.0068 91.8359 25.8322C91.6906 25.6578 91.4479 25.5705 91.1086 25.5705C90.6726 25.5705 90.3187 25.7257 90.0475 26.0358C90.0572 26.2007 90.0621 26.4528 90.0621 26.7921V30.7768H87.6187V26.574C87.6187 26.2152 87.5554 25.9583 87.4295 25.8032C87.3037 25.6481 87.0805 25.5705 86.7606 25.5705C86.2662 25.5705 85.8393 25.8468 85.4812 26.3994V30.7768H83.0232V23.7963Z" fill="#FF9500"/>
<path d="M24.7774 24.5345L24.5787 24.5766L30.7435 30.7414V47.5H25.4676L19.2607 41.2931H24.5366V24.5344H19.2607V19.2587H24.5366V2.5L30.7435 8.70689V19.2586L24.5366 19.2587V24.5344L24.7774 24.5345Z" fill="#94A400"/>
<path d="M41.2954 24.5344L47.5023 30.7413V25.4654L41.2954 19.2585V24.5344Z" fill="#94A400"/>
<path d="M53.6338 35.5485H57.4003C58.4666 35.5485 59.2954 35.8006 59.8872 36.3048C60.4879 36.8089 60.789 37.5554 60.789 38.5443C60.789 39.5429 60.4928 40.2895 59.9018 40.784C59.31 41.2784 58.4763 41.5256 57.4003 41.5256H54.7681V45.7139H53.6338V35.5485ZM57.3131 40.5658C58.0403 40.5658 58.6126 40.4204 59.0291 40.1295C59.4463 39.829 59.6542 39.3006 59.6542 38.5443C59.6542 37.7784 59.4463 37.25 59.0291 36.9592C58.6126 36.6586 58.0403 36.5084 57.3131 36.5084H54.7681V40.5658H57.3131Z" fill="#94A400"/>
<path d="M62.2402 34.9668H63.3597V45.7139H62.2402V34.9668Z" fill="#94A400"/>
<path d="M68.2146 45.9321C67.2836 45.9321 66.566 45.68 66.0618 45.1758C65.5674 44.6717 65.3206 43.9979 65.3206 43.1544V38.7334H66.4401V43.2126C66.4401 44.4342 67.0749 45.045 68.3453 45.045C68.8787 45.045 69.3438 44.9286 69.7416 44.696C70.1484 44.4632 70.512 44.0948 70.8319 43.5907V38.7334H71.9521V45.7139H70.8611V44.6668C70.2311 45.5103 69.3487 45.9321 68.2146 45.9321Z" fill="#94A400"/>
<path d="M76.414 45.9321C75.9579 45.9321 75.4684 45.8642 74.9448 45.7285C74.4212 45.6024 74.0144 45.4425 73.7231 45.2485V44.3033C74.0916 44.5263 74.5137 44.7056 74.9886 44.8413C75.4732 44.9771 75.9384 45.0449 76.3848 45.0449C76.9856 45.0449 77.4174 44.9625 77.6789 44.7977C77.9507 44.6232 78.0863 44.3663 78.0863 44.027C78.0863 43.7652 78.0279 43.5616 77.9118 43.4162C77.795 43.261 77.6017 43.1253 77.3298 43.009C77.0586 42.8926 76.6366 42.7569 76.065 42.6018C75.5025 42.4467 75.0519 42.2867 74.7125 42.1219C74.383 41.9473 74.1305 41.7292 73.956 41.4674C73.7815 41.2057 73.6946 40.8712 73.6946 40.464C73.6946 39.8338 73.9463 39.3539 74.4504 39.0243C74.9643 38.6849 75.6429 38.5153 76.4864 38.5153C76.9418 38.5153 77.3687 38.5589 77.7665 38.6461C78.1733 38.7237 78.5126 38.8352 78.7845 38.9807V39.9259C78.5028 39.7708 78.1635 39.6496 77.7665 39.5623C77.3687 39.4654 76.9564 39.4169 76.5302 39.4169C75.9676 39.4169 75.5414 39.4993 75.25 39.6641C74.9594 39.829 74.8141 40.0956 74.8141 40.464C74.8141 40.7161 74.8627 40.91 74.9594 41.0457C75.0665 41.1814 75.2549 41.3075 75.5268 41.4238C75.8077 41.5305 76.2541 41.6662 76.8646 41.831C77.7373 42.0734 78.3429 42.3594 78.6822 42.6891C79.0313 43.009 79.2058 43.455 79.2058 44.027C79.2058 44.6183 78.9736 45.0837 78.5077 45.4231C78.0523 45.7624 77.3541 45.9321 76.414 45.9321Z" fill="#94A400"/>
</svg>
