<svg width="168" height="42" viewBox="0 0 168 42" fill="none" xmlns="http://www.w3.org/2000/svg">
<g clip-path="url(#clip0_22_173)">
<path d="M48.8579 28.9489H60.8099V25.3489H53.1059V11.7889H48.8579V28.9489Z" fill="#FF009D"/>
<path d="M67.8911 26.549C66.1871 26.549 65.2991 25.061 65.2991 22.829C65.2991 20.597 66.1871 19.085 67.8911 19.085C69.5951 19.085 70.5071 20.597 70.5071 22.829C70.5071 25.061 69.5951 26.549 67.8911 26.549ZM67.9151 29.333C71.8751 29.333 74.4671 26.525 74.4671 22.829C74.4671 19.133 71.8751 16.325 67.9151 16.325C63.9791 16.325 61.3391 19.133 61.3391 22.829C61.3391 26.525 63.9791 29.333 67.9151 29.333Z" fill="#FF009D"/>
<path d="M81.3216 33.197C83.1456 33.197 84.7536 32.789 85.8336 31.829C86.8176 30.941 87.4656 29.597 87.4656 27.749V16.661H83.7216V17.981H83.6736C82.9536 16.949 81.8496 16.301 80.2176 16.301C77.1696 16.301 75.0576 18.845 75.0576 22.445C75.0576 26.213 77.6256 28.277 80.3856 28.277C81.8736 28.277 82.8096 27.677 83.5296 26.861H83.6256V28.085C83.6256 29.573 82.9296 30.437 81.2736 30.437C79.9776 30.437 79.3296 29.885 79.1136 29.237H75.3216C75.7056 31.805 77.9376 33.197 81.3216 33.197ZM81.2976 25.373C79.8336 25.373 78.8736 24.173 78.8736 22.325C78.8736 20.453 79.8336 19.253 81.2976 19.253C82.9296 19.253 83.7936 20.645 83.7936 22.301C83.7936 24.029 83.0016 25.373 81.2976 25.373Z" fill="#FF009D"/>
<path d="M95.1641 26.549C93.4601 26.549 92.5721 25.061 92.5721 22.829C92.5721 20.597 93.4601 19.085 95.1641 19.085C96.8681 19.085 97.7801 20.597 97.7801 22.829C97.7801 25.061 96.8681 26.549 95.1641 26.549ZM95.1881 29.333C99.1481 29.333 101.74 26.525 101.74 22.829C101.74 19.133 99.1481 16.325 95.1881 16.325C91.2521 16.325 88.6121 19.133 88.6121 22.829C88.6121 26.525 91.2521 29.333 95.1881 29.333Z" fill="#FF009D"/>
<path d="M102.882 28.9489H106.794V16.6609H102.882V28.9489ZM102.882 14.9569H106.794V11.7889H102.882V14.9569Z" fill="#FF009D"/>
<path d="M108.491 33.005H112.403V27.677H112.451C113.219 28.709 114.347 29.333 115.931 29.333C119.147 29.333 121.283 26.789 121.283 22.805C121.283 19.109 119.291 16.301 116.027 16.301C114.347 16.301 113.147 17.045 112.307 18.149H112.235V16.661H108.491V33.005ZM114.923 26.309C113.243 26.309 112.283 24.941 112.283 22.949C112.283 20.957 113.147 19.445 114.851 19.445C116.531 19.445 117.323 20.837 117.323 22.949C117.323 25.037 116.411 26.309 114.923 26.309Z" fill="#FF009D"/>
<path d="M127.653 29.333C130.869 29.333 133.245 27.941 133.245 25.253C133.245 22.109 130.701 21.557 128.541 21.197C126.981 20.909 125.589 20.789 125.589 19.925C125.589 19.157 126.333 18.797 127.293 18.797C128.373 18.797 129.117 19.133 129.261 20.237H132.861C132.669 17.813 130.797 16.301 127.317 16.301C124.413 16.301 122.013 17.645 122.013 20.237C122.013 23.117 124.293 23.693 126.429 24.053C128.061 24.341 129.549 24.461 129.549 25.565C129.549 26.357 128.805 26.789 127.629 26.789C126.333 26.789 125.517 26.189 125.373 24.965H121.677C121.797 27.677 124.053 29.333 127.653 29.333Z" fill="#FF009D"/>
<path d="M138.558 29.309C140.262 29.309 141.342 28.637 142.23 27.437H142.302V28.949H146.046V16.661H142.134V23.525C142.134 24.989 141.318 25.997 139.974 25.997C138.726 25.997 138.126 25.253 138.126 23.909V16.661H134.238V24.725C134.238 27.461 135.726 29.309 138.558 29.309Z" fill="#FF009D"/>
<path d="M147.748 28.949H151.66V22.061C151.66 20.597 152.38 19.565 153.604 19.565C154.78 19.565 155.332 20.333 155.332 21.653V28.949H159.244V22.061C159.244 20.597 159.94 19.565 161.188 19.565C162.364 19.565 162.916 20.333 162.916 21.653V28.949H166.828V20.957C166.828 18.197 165.436 16.301 162.652 16.301C161.068 16.301 159.748 16.973 158.788 18.461H158.74C158.116 17.141 156.892 16.301 155.284 16.301C153.508 16.301 152.332 17.141 151.564 18.413H151.492V16.661H147.748V28.949Z" fill="#FF009D"/>
<path fill-rule="evenodd" clip-rule="evenodd" d="M8.88146 4.04684C7.4508 5.0472 6.15711 6.22995 5.03406 7.56137C9.62336 7.1353 15.4539 7.83102 22.2231 11.2156C29.4517 14.8298 35.2725 14.952 39.3235 14.1706C38.9559 13.0577 38.4931 11.9881 37.945 10.9713C33.3077 11.4604 27.3627 10.813 20.4343 7.34895C16.0347 5.14915 12.1565 4.24298 8.88146 4.04684ZM35.2361 7.11562C31.574 3.02397 26.2521 0.448975 20.3287 0.448975C18.5892 0.448975 16.9014 0.671082 15.2924 1.08845C17.4716 1.68306 19.7866 2.55296 22.2231 3.77124C27.2957 6.3075 31.6751 7.12413 35.2361 7.11562ZM40.1896 18.077C35.2956 19.0434 28.5375 18.8449 20.4343 14.7933C12.8587 11.0055 6.82917 11.0533 2.76264 11.957C2.55274 12.0036 2.34778 12.0525 2.14777 12.1035C1.61536 13.2614 1.19037 14.4791 0.885437 15.7435C1.21112 15.6565 1.54767 15.5737 1.8949 15.4965C6.82831 14.4002 13.7988 14.4478 22.2231 18.66C29.7988 22.4478 35.8283 22.4002 39.8949 21.4965C40.0342 21.4656 40.1715 21.4335 40.3065 21.4005C40.3213 21.0852 40.3287 20.7679 40.3287 20.4489C40.3287 19.6464 40.2815 18.8549 40.1896 18.077ZM39.6535 25.6213C34.807 26.4686 28.2457 26.1433 20.4343 22.2377C12.8587 18.4499 6.82917 18.4977 2.76264 19.4014C1.85999 19.6019 1.04797 19.8461 0.331665 20.104C0.329712 20.2187 0.328735 20.3337 0.328735 20.4489C0.328735 31.4946 9.28303 40.4489 20.3287 40.4489C29.5858 40.4489 37.374 34.1599 39.6535 25.6213Z" fill="#7F57F1"/>
</g>
<defs>
<clipPath id="clip0_22_173">
<rect width="167" height="41" fill="white" transform="translate(0.227295 0.155396)"/>
</clipPath>
</defs>
</svg>
