<svg width="100" height="51" viewBox="0 0 100 51" fill="none" xmlns="http://www.w3.org/2000/svg">
<path d="M2.58521 29.5165H5.41812V43.4072H2.58521V29.5165Z" fill="#AF00B9"/>
<path d="M7.06126 38.6479C7.05939 37.6502 7.35354 36.6743 7.90649 35.8438C8.45944 35.0133 9.24633 34.3655 10.1676 33.9824C11.0888 33.5993 12.103 33.4981 13.0818 33.6916C14.0606 33.8851 14.96 34.3646 15.6661 35.0695C16.3723 35.7743 16.8535 36.6728 17.0488 37.6512C17.2442 38.6296 17.1449 39.644 16.7635 40.566C16.3821 41.4879 15.7358 42.276 14.9063 42.8305C14.0769 43.3851 13.1016 43.681 12.1039 43.681C11.4403 43.6886 10.782 43.5637 10.1674 43.3135C9.55281 43.0634 8.99432 42.6931 8.52468 42.2243C8.05504 41.7556 7.68369 41.1978 7.4324 40.5836C7.18111 39.9695 7.05493 39.3114 7.06126 38.6479ZM14.2946 38.6479C14.2835 38.2172 14.1456 37.7993 13.8982 37.4466C13.6508 37.0938 13.3049 36.8219 12.9037 36.6647C12.5025 36.5075 12.0639 36.4722 11.6428 36.563C11.2216 36.6538 10.8366 36.8668 10.5358 37.1753C10.2351 37.4838 10.032 37.8742 9.95193 38.2976C9.87188 38.7209 9.91846 39.1585 10.0858 39.5555C10.2532 39.9525 10.5339 40.2914 10.8928 40.5297C11.2518 40.768 11.673 40.8952 12.1039 40.8953C12.3986 40.9036 12.6919 40.8507 12.9652 40.7399C13.2385 40.6291 13.4859 40.4629 13.6918 40.2517C13.8976 40.0405 14.0575 39.789 14.1612 39.513C14.265 39.2369 14.3104 38.9424 14.2946 38.6479Z" fill="#AF00B9"/>
<path d="M28.5345 33.8885V42.9349C28.5345 46.1361 26.0321 47.4865 23.5014 47.4865C22.6115 47.5527 21.7205 47.3727 20.926 46.9663C20.1315 46.5599 19.4642 45.9427 18.9971 45.1824L21.4334 43.7754C21.6267 44.165 21.9326 44.4877 22.3114 44.7015C22.6902 44.9153 23.1245 45.0105 23.5581 44.9746C23.8433 45.0222 24.1357 45.0036 24.4127 44.9202C24.6897 44.8369 24.9438 44.6911 25.1555 44.494C25.3671 44.2969 25.5307 44.0538 25.6336 43.7835C25.7365 43.5132 25.7759 43.2229 25.7488 42.9349V42.0567C25.4158 42.4665 24.9908 42.792 24.5085 43.0069C24.0262 43.2218 23.5 43.3201 22.9726 43.2938C21.6903 43.2938 20.4606 42.7844 19.5538 41.8777C18.6471 40.971 18.1377 39.7412 18.1377 38.4589C18.1377 37.1766 18.6471 35.9469 19.5538 35.0402C20.4606 34.1335 21.6903 33.6241 22.9726 33.6241C23.4997 33.6 24.0251 33.6993 24.5071 33.914C24.9891 34.1288 25.4143 34.4531 25.7488 34.8611V33.9168L28.5345 33.8885ZM25.7488 38.4589C25.7677 37.9997 25.6487 37.5453 25.4073 37.1541C25.1658 36.763 24.8129 36.453 24.3939 36.2641C23.9749 36.0751 23.5089 36.0158 23.0559 36.0938C22.6029 36.1717 22.1836 36.3834 21.8519 36.7015C21.5201 37.0197 21.2911 37.4298 21.1943 37.8791C21.0974 38.3284 21.1372 38.7965 21.3085 39.223C21.4798 39.6496 21.7747 40.0151 22.1554 40.2727C22.5361 40.5304 22.9851 40.6682 23.4447 40.6686C23.7448 40.6898 24.0459 40.648 24.3287 40.5457C24.6116 40.4434 24.8699 40.2831 25.087 40.0749C25.304 39.8667 25.4751 39.6153 25.5891 39.337C25.7031 39.0587 25.7575 38.7596 25.7488 38.4589Z" fill="#AF00B9"/>
<path d="M30.1682 38.6479C30.1663 37.6502 30.4605 36.6743 31.0134 35.8438C31.5664 35.0133 32.3533 34.3655 33.2745 33.9824C34.1957 33.5993 35.2099 33.4981 36.1887 33.6916C37.1675 33.8851 38.0669 34.3646 38.7731 35.0695C39.4792 35.7743 39.9604 36.6728 40.1558 37.6512C40.3511 38.6296 40.2518 39.644 39.8704 40.566C39.489 41.4879 38.8427 42.276 38.0133 42.8305C37.1838 43.3851 36.2085 43.681 35.2108 43.681C34.5473 43.6886 33.8889 43.5637 33.2743 43.3135C32.6597 43.0634 32.1012 42.6931 31.6316 42.2243C31.162 41.7556 30.7906 41.1978 30.5393 40.5836C30.288 39.9695 30.1618 39.3114 30.1682 38.6479ZM37.4016 38.6479C37.3904 38.2172 37.2525 37.7993 37.0051 37.4466C36.7577 37.0938 36.4118 36.8219 36.0106 36.6647C35.6095 36.5075 35.1709 36.4722 34.7497 36.563C34.3285 36.6538 33.9435 36.8668 33.6427 37.1753C33.342 37.4838 33.1389 37.8742 33.0588 38.2976C32.9788 38.7209 33.0254 39.1585 33.1927 39.5555C33.3601 39.9525 33.6408 40.2914 33.9997 40.5297C34.3587 40.768 34.7799 40.8952 35.2108 40.8953C35.504 40.9009 35.7952 40.8461 36.0663 40.7341C36.3373 40.6221 36.5824 40.4555 36.7862 40.2446C36.99 40.0338 37.1481 39.7831 37.2508 39.5084C37.3534 39.2337 37.3983 38.9407 37.3827 38.6479H37.4016Z" fill="#AF00B9"/>
<path d="M41.5662 31.339C41.5662 30.9991 41.667 30.6668 41.8558 30.3842C42.0447 30.1016 42.3131 29.8813 42.6271 29.7512C42.9412 29.6211 43.2867 29.5871 43.6201 29.6534C43.9535 29.7197 44.2597 29.8834 44.5001 30.1237C44.7405 30.3641 44.9041 30.6703 44.9704 31.0037C45.0368 31.3371 45.0027 31.6827 44.8727 31.9967C44.7426 32.3107 44.5223 32.5792 44.2397 32.768C43.957 32.9568 43.6248 33.0576 43.2848 33.0576C42.8298 33.0552 42.3941 32.8733 42.0723 32.5515C41.7505 32.2298 41.5687 31.7941 41.5662 31.339ZM41.8589 33.8886H44.6918V43.4072H41.8589V33.8886Z" fill="#AF00B9"/>
<path d="M57.0431 38.648C57.0774 39.2772 56.987 39.907 56.777 40.5011C56.5669 41.0952 56.2415 41.6419 55.8193 42.1097C55.3971 42.5775 54.8866 42.9572 54.3171 43.2269C53.7476 43.4966 53.1304 43.651 52.501 43.6812C51.9726 43.7065 51.445 43.6157 50.9556 43.415C50.4661 43.2143 50.0266 42.9087 49.6681 42.5197V47.2412H46.8352V33.8887H49.6681V34.7858C50.0266 34.3968 50.4661 34.0912 50.9556 33.8905C51.445 33.6898 51.9726 33.599 52.501 33.6243C53.1296 33.6545 53.746 33.8086 54.3148 34.0777C54.8837 34.3469 55.3938 34.7257 55.8158 35.1925C56.2379 35.6593 56.5635 36.2048 56.7741 36.7978C56.9848 37.3908 57.0762 38.0196 57.0431 38.648ZM54.2102 38.648C54.199 38.2048 54.058 37.7746 53.8047 37.4107C53.5514 37.0469 53.197 36.7652 52.7853 36.6008C52.3736 36.4363 51.9226 36.3962 51.4884 36.4855C51.0541 36.5747 50.6555 36.7894 50.342 37.1029C50.0285 37.4164 49.8139 37.8149 49.7246 38.2492C49.6354 38.6835 49.6755 39.1344 49.8399 39.5461C50.0044 39.9578 50.286 40.3123 50.6499 40.5655C51.0138 40.8188 51.444 40.9598 51.8872 40.971C52.1965 40.9907 52.5064 40.9439 52.7962 40.8339C53.0859 40.7238 53.3487 40.553 53.567 40.333C53.7852 40.1129 53.9539 39.8487 54.0616 39.5581C54.1692 39.2675 54.2135 38.9572 54.1913 38.648H54.2102Z" fill="#AF00B9"/>
<path d="M65.863 40.5554C65.863 42.7462 63.9744 43.681 61.8969 43.681C61.067 43.7545 60.2341 43.5779 59.5054 43.174C58.7768 42.7701 58.1856 42.1574 57.8081 41.4147L60.2822 40.0077C60.3826 40.3512 60.5976 40.65 60.8913 40.8544C61.1851 41.0588 61.5399 41.1566 61.8969 41.1314C62.5863 41.1314 62.9262 40.9142 62.9262 40.5365C62.9262 39.4883 58.2047 40.0455 58.2047 36.7593C58.2047 34.6818 59.9611 33.6336 61.9819 33.6336C62.7276 33.611 63.4658 33.7881 64.12 34.1468C64.7742 34.5054 65.3205 35.0325 65.7025 35.6733L63.219 36.9765C63.1093 36.7271 62.9295 36.5149 62.7015 36.3657C62.4735 36.2165 62.2072 36.1367 61.9347 36.136C61.4437 36.136 61.1415 36.3249 61.1415 36.6743C61.1793 37.7602 65.863 37.0331 65.863 40.5554Z" fill="#AF00B9"/>
<path d="M76.2881 33.8885V43.4072H73.4551V42.5196C73.1256 42.914 72.7074 43.2248 72.2347 43.4267C71.7621 43.6286 71.2483 43.7156 70.7355 43.681C68.8469 43.681 67.1755 42.3117 67.1755 39.7338V33.8885H70.0084V39.3184C69.9835 39.5498 70.0105 39.7838 70.0873 40.0035C70.1641 40.2232 70.2888 40.423 70.4525 40.5885C70.6161 40.754 70.8146 40.8808 71.0334 40.96C71.2522 41.0393 71.486 41.0688 71.7176 41.0465C72.7564 41.0465 73.4835 40.4421 73.4835 39.0918V33.8885H76.2881Z" fill="#AF00B9"/>
<path d="M92.6622 37.5713V43.4071H89.8292V37.8169C89.8292 36.8726 89.3665 36.2493 88.46 36.2493C87.5535 36.2493 86.968 36.9198 86.968 38.0435V43.4071H84.1351V37.8169C84.1351 36.8726 83.6818 36.2493 82.7658 36.2493C81.8499 36.2493 81.2833 36.9198 81.2833 38.0435V43.4071H78.4504V33.8886H81.2833V34.7668C81.5794 34.3789 81.9677 34.0712 82.413 33.8717C82.8583 33.6721 83.3464 33.587 83.8329 33.6242C84.3215 33.6004 84.808 33.7037 85.2448 33.9237C85.6817 34.1438 86.0541 34.4733 86.3259 34.8801C86.6419 34.4548 87.0606 34.1165 87.5428 33.8969C88.025 33.6773 88.555 33.5834 89.0832 33.6242C91.2363 33.6242 92.6622 35.1917 92.6622 37.5713Z" fill="#AF00B9"/>
<path d="M95.0799 33.8319C96.2481 33.8319 97.1951 32.8848 97.1951 31.7166C97.1951 30.5484 96.2481 29.6014 95.0799 29.6014C93.9117 29.6014 92.9646 30.5484 92.9646 31.7166C92.9646 32.8848 93.9117 33.8319 95.0799 33.8319Z" fill="#AF00B9"/>
<path d="M34.6443 22.3115C40.1151 22.3115 44.55 17.8765 44.55 12.4057C44.55 6.93496 40.1151 2.5 34.6443 2.5C29.1735 2.5 24.7385 6.93496 24.7385 12.4057C24.7385 17.8765 29.1735 22.3115 34.6443 22.3115Z" fill="#AF00B9"/>
<path d="M56.7881 22.3115C62.2589 22.3115 66.6938 17.8765 66.6938 12.4057C66.6938 6.93496 62.2589 2.5 56.7881 2.5C51.3173 2.5 46.8823 6.93496 46.8823 12.4057C46.8823 17.8765 51.3173 22.3115 56.7881 22.3115Z" fill="#AF00B9"/>
<path d="M22.406 2.5H2.604V22.302H22.406V2.5Z" fill="#AF00B9"/>
</svg>
