<svg width="127" height="39" viewBox="0 0 127 39" fill="none" xmlns="http://www.w3.org/2000/svg">
<path d="M19.5 2C17.2019 2 14.9262 2.4527 12.803 3.3321C10.6798 4.2116 8.7507 5.5006 7.1256 7.1256C5.5006 8.7507 4.2116 10.6798 3.3321 12.803C2.4527 14.9262 2 17.2019 2 19.5C2 21.7981 2.4527 24.0738 3.3321 26.197C4.2116 28.3202 5.5006 30.2493 7.1256 31.8744C8.7507 33.4994 10.6798 34.7884 12.803 35.6679C14.9262 36.5473 17.2019 37 19.5 37V28.25C18.3509 28.25 17.2131 28.0237 16.1515 27.5839C15.0899 27.1442 14.1253 26.4997 13.3128 25.6872C12.5003 24.8747 11.8558 23.9101 11.4161 22.8485C10.9763 21.7869 10.75 20.6491 10.75 19.5C10.75 18.3509 10.9763 17.2131 11.4161 16.1515C11.8558 15.0899 12.5003 14.1253 13.3128 13.3128C14.1253 12.5003 15.0899 11.8558 16.1515 11.4161C17.2131 10.9763 18.3509 10.75 19.5 10.75V2Z" fill="#0F52FF"/>
<path d="M19.5 25.3333C22.7217 25.3333 25.3333 22.7217 25.3333 19.5C25.3333 16.2783 22.7217 13.6667 19.5 13.6667C16.2783 13.6667 13.6667 16.2783 13.6667 19.5C13.6667 22.7217 16.2783 25.3333 19.5 25.3333Z" fill="#0F52FF"/>
<path d="M2 19.5C2 21.7981 2.4527 24.0738 3.3321 26.197C4.2116 28.3202 5.5006 30.2493 7.1256 31.8744C8.7507 33.4994 10.6798 34.7884 12.803 35.6679C14.9262 36.5473 17.2019 37 19.5 37C21.7981 37 24.0738 36.5473 26.197 35.6679C28.3202 34.7884 30.2493 33.4994 31.8744 31.8744C33.4994 30.2493 34.7884 28.3202 35.6679 26.197C36.5473 24.0738 37 21.7981 37 19.5H28.25C28.25 20.6491 28.0237 21.7869 27.5839 22.8485C27.1442 23.9101 26.4997 24.8747 25.6872 25.6872C24.8747 26.4997 23.9101 27.1442 22.8485 27.5839C21.7869 28.0237 20.6491 28.25 19.5 28.25C18.3509 28.25 17.2131 28.0237 16.1515 27.5839C15.0899 27.1442 14.1253 26.4997 13.3128 25.6872C12.5003 24.8747 11.8558 23.9101 11.4161 22.8485C10.9763 21.7869 10.75 20.6491 10.75 19.5H2Z" fill="#5BD0F4"/>
<path d="M25.3334 19.5C25.3334 17.9529 24.7188 16.4692 23.6249 15.3752C22.5309 14.2812 21.0472 13.6666 19.5001 13.6666C17.953 13.6666 16.4693 14.2812 15.3753 15.3752C14.2813 16.4692 13.6667 17.9529 13.6667 19.5H19.5001H25.3334Z" fill="#5BD0F4"/>
<path d="M46.1396 12.925H43.9661V25H46.1396V12.925Z" fill="#0F52FF"/>
<path d="M47.5588 20.722C47.5588 23.5165 49.4908 25.2415 52.0438 25.2415C54.5968 25.2415 56.5288 23.5165 56.5288 20.722C56.5288 17.9275 54.5968 16.2025 52.0438 16.2025C49.4908 16.2025 47.5588 17.9275 47.5588 20.722ZM49.7323 20.722C49.7323 19.066 50.6983 18.1 52.0438 18.1C53.3893 18.1 54.3553 19.066 54.3553 20.722C54.3553 22.378 53.3893 23.344 52.0438 23.344C50.6983 23.344 49.7323 22.378 49.7323 20.722Z" fill="#0F52FF"/>
<path d="M64.2959 16.444V17.5997H64.1234C63.6059 16.858 62.7779 16.2025 61.2944 16.2025C59.2589 16.2025 57.4304 17.9275 57.4304 20.584C57.4304 23.2405 59.2589 24.9655 61.2944 24.9655C62.7779 24.9655 63.6059 24.2927 64.0889 23.62H64.2614V24.448C64.2614 26.104 63.2954 26.863 61.8809 26.863C60.4664 26.863 59.7419 26.104 59.4486 25.1207L57.4994 25.966C57.9479 27.2597 59.2589 28.6915 61.9154 28.6915C64.6409 28.6915 66.4349 27.2597 66.4349 24.4997V16.444H64.2959ZM61.9499 23.1025C60.6044 23.1025 59.6039 22.1365 59.6039 20.584C59.6039 19.0315 60.6044 18.0655 61.9499 18.0655C63.2954 18.0655 64.2959 19.0315 64.2959 20.584C64.2959 22.1365 63.2954 23.1025 61.9499 23.1025Z" fill="#0F52FF"/>
<path d="M67.8411 20.722C67.8411 23.5165 69.7731 25.2415 72.3261 25.2415C74.8791 25.2415 76.811 23.5165 76.811 20.722C76.811 17.9275 74.8791 16.2025 72.3261 16.2025C69.7731 16.2025 67.8411 17.9275 67.8411 20.722ZM70.0146 20.722C70.0146 19.066 70.9806 18.1 72.3261 18.1C73.6716 18.1 74.6376 19.066 74.6376 20.722C74.6376 22.378 73.6716 23.344 72.3261 23.344C70.9806 23.344 70.0146 22.378 70.0146 20.722Z" fill="#0F52FF"/>
<path d="M78.5171 13.9599C78.5171 14.8397 79.1901 15.4434 80.0531 15.4434C80.9151 15.4434 81.5881 14.8397 81.5881 13.9599C81.5881 13.0802 80.9151 12.4764 80.0531 12.4764C79.1901 12.4764 78.5171 13.0802 78.5171 13.9599ZM81.1391 16.4439H78.9661V24.9999H81.1391V16.4439Z" fill="#5BD0F4"/>
<path d="M83.0759 28.45H85.2499V23.896H85.4219C85.9049 24.586 86.7329 25.2415 88.2169 25.2415C90.2519 25.2415 92.0809 23.5165 92.0809 20.722C92.0809 17.9275 90.2519 16.2025 88.2169 16.2025C86.7329 16.2025 85.9049 16.858 85.3879 17.5998H85.2149V16.444H83.0759V28.45ZM87.5609 23.3785C86.2159 23.3785 85.2149 22.4125 85.2149 20.722C85.2149 19.0315 86.2159 18.0655 87.5609 18.0655C88.9069 18.0655 89.9069 19.0315 89.9069 20.722C89.9069 22.4125 88.9069 23.3785 87.5609 23.3785Z" fill="#5BD0F4"/>
<path d="M93.3491 18.8418C93.3491 20.5323 94.7631 21.1533 96.5571 21.4983L97.0061 21.5845C98.0751 21.7915 98.5581 22.0503 98.5581 22.6023C98.5581 23.1543 98.0751 23.5855 97.0751 23.5855C96.0741 23.5855 95.2641 23.1715 95.0391 21.9295L93.0381 22.447C93.3321 24.241 94.8321 25.2415 97.0751 25.2415C99.2481 25.2415 100.663 24.2238 100.663 22.4298C100.663 20.6357 99.2141 20.1528 97.2821 19.7733L96.8331 19.687C95.9361 19.5145 95.4531 19.273 95.4531 18.7038C95.4531 18.1863 95.9021 17.8585 96.7301 17.8585C97.5581 17.8585 98.1441 18.2035 98.3511 19.135L100.318 18.5313C99.9041 17.1513 98.6451 16.2025 96.7301 16.2025C94.6941 16.2025 93.3491 17.1513 93.3491 18.8418Z" fill="#5BD0F4"/>
<path d="M110.426 25V16.444H108.253V20.86C108.253 22.447 107.477 23.3785 106.148 23.3785C104.975 23.3785 104.32 22.7403 104.32 21.4465V16.444H102.146V21.55C102.146 23.6718 103.475 25.138 105.476 25.138C107.045 25.138 107.77 24.448 108.115 23.7235H108.287V25H110.426Z" fill="#5BD0F4"/>
<path d="M112.354 16.444V25H114.528V19.894C114.528 18.721 115.08 18.0655 116.08 18.0655C116.943 18.0655 117.46 18.5485 117.46 19.48V25H119.634V19.894C119.634 18.721 120.186 18.0655 121.186 18.0655C122.049 18.0655 122.566 18.5485 122.566 19.48V25H124.74V19.3765C124.74 17.3065 123.463 16.306 121.876 16.306C120.479 16.306 119.841 16.927 119.427 17.6515H119.254C118.857 16.8408 118.15 16.306 116.908 16.306C115.666 16.306 114.993 16.858 114.666 17.5135H114.493V16.444H112.354Z" fill="#5BD0F4"/>
</svg>
